999
"DXF R12 Output" (www.mydxf.blogspot.com)
 0 
SECTION
 2 
HEADER
 9 
$ACADVER
 1 
AC1009
 9 
$EXTMIN
 10 
 0 
 20 
 0 
 9 
$EXTMAX
 10 
 8.5 
 20 
 11 
 0 
ENDSEC
 0 
SECTION
 2 
ENTITIES
0
LINE
8
Layer 1
10
-369.933000
20
-54.697900
11
-376.621584
21
-54.527155
0
LINE
8
Layer 1
10
-376.621584
20
-54.527155
11
-383.222312
21
-54.023677
0
LINE
8
Layer 1
10
-383.222312
20
-54.023677
11
-389.727020
21
-53.195631
0
LINE
8
Layer 1
10
-389.727020
20
-53.195631
11
-396.127544
21
-52.051182
0
LINE
8
Layer 1
10
-396.127544
20
-52.051182
11
-402.415723
21
-50.598495
0
LINE
8
Layer 1
10
-402.415723
20
-50.598495
11
-408.583391
21
-48.845737
0
LINE
8
Layer 1
10
-408.583391
20
-48.845737
11
-414.622387
21
-46.801071
0
LINE
8
Layer 1
10
-414.622387
20
-46.801071
11
-420.524546
21
-44.472664
0
LINE
8
Layer 1
10
-420.524546
20
-44.472664
11
-426.281706
21
-41.868681
0
LINE
8
Layer 1
10
-426.281706
20
-41.868681
11
-431.885703
21
-38.997286
0
LINE
8
Layer 1
10
-431.885703
20
-38.997286
11
-437.328375
21
-35.866646
0
LINE
8
Layer 1
10
-437.328375
20
-35.866646
11
-442.601556
21
-32.484925
0
LINE
8
Layer 1
10
-442.601556
20
-32.484925
11
-447.697086
21
-28.860288
0
LINE
8
Layer 1
10
-447.697086
20
-28.860288
11
-452.606799
21
-25.000902
0
LINE
8
Layer 1
10
-452.606799
20
-25.000902
11
-457.322533
21
-20.914931
0
LINE
8
Layer 1
10
-457.322533
20
-20.914931
11
-461.836125
21
-16.610540
0
LINE
8
Layer 1
10
-461.836125
20
-16.610540
11
-466.139411
21
-12.095896
0
LINE
8
Layer 1
10
-466.139411
20
-12.095896
11
-470.224229
21
-7.379162
0
LINE
8
Layer 1
10
-470.224229
20
-7.379162
11
-474.082414
21
-2.468504
0
LINE
8
Layer 1
10
-474.082414
20
-2.468504
11
-477.705803
21
2.627911
0
LINE
8
Layer 1
10
-477.705803
20
2.627911
11
-481.086234
21
7.901920
0
LINE
8
Layer 1
10
-481.086234
20
7.901920
11
-484.215543
21
13.345357
0
LINE
8
Layer 1
10
-484.215543
20
13.345357
11
-487.085567
21
18.950057
0
LINE
8
Layer 1
10
-487.085567
20
18.950057
11
-489.688142
21
24.707854
0
LINE
8
Layer 1
10
-489.688142
20
24.707854
11
-492.015105
21
30.610582
0
LINE
8
Layer 1
10
-492.015105
20
30.610582
11
-494.058293
21
36.650078
0
LINE
8
Layer 1
10
-494.058293
20
36.650078
11
-495.809542
21
42.818175
0
LINE
8
Layer 1
10
-495.809542
20
42.818175
11
-497.260690
21
49.106709
0
LINE
8
Layer 1
10
-497.260690
20
49.106709
11
-498.403573
21
55.507513
0
LINE
8
Layer 1
10
-498.403573
20
55.507513
11
-499.230028
21
62.012424
0
LINE
8
Layer 1
10
-499.230028
20
62.012424
11
-499.731891
21
68.613274
0
LINE
8
Layer 1
10
-499.731891
20
68.613274
11
-499.901000
21
75.301900
0
LINE
8
Layer 1
10
-499.901000
20
75.301900
11
-499.741236
21
81.748231
0
LINE
8
Layer 1
10
-499.741236
20
81.748231
11
-499.264876
21
88.150810
0
LINE
8
Layer 1
10
-499.264876
20
88.150810
11
-498.476334
21
94.498981
0
LINE
8
Layer 1
10
-498.476334
20
94.498981
11
-497.380023
21
100.782088
0
LINE
8
Layer 1
10
-497.380023
20
100.782088
11
-495.980357
21
106.989477
0
LINE
8
Layer 1
10
-495.980357
20
106.989477
11
-494.281751
21
113.110492
0
LINE
8
Layer 1
10
-494.281751
20
113.110492
11
-492.288616
21
119.134477
0
LINE
8
Layer 1
10
-492.288616
20
119.134477
11
-490.005368
21
125.050777
0
LINE
8
Layer 1
10
-490.005368
20
125.050777
11
-487.436419
21
130.848736
0
LINE
8
Layer 1
10
-487.436419
20
130.848736
11
-484.586184
21
136.517699
0
LINE
8
Layer 1
10
-484.586184
20
136.517699
11
-481.459076
21
142.047010
0
LINE
8
Layer 1
10
-481.459076
20
142.047010
11
-478.059508
21
147.426014
0
LINE
8
Layer 1
10
-478.059508
20
147.426014
11
-474.391895
21
152.644055
0
LINE
8
Layer 1
10
-474.391895
20
152.644055
11
-470.460649
21
157.690477
0
LINE
8
Layer 1
10
-470.460649
20
157.690477
11
-466.270185
21
162.554626
0
LINE
8
Layer 1
10
-466.270185
20
162.554626
11
-461.824917
21
167.225846
0
LINE
8
Layer 1
10
-461.824917
20
167.225846
11
-457.153701
21
171.671118
0
LINE
8
Layer 1
10
-457.153701
20
171.671118
11
-452.289555
21
175.861586
0
LINE
8
Layer 1
10
-452.289555
20
175.861586
11
-447.243135
21
179.792835
0
LINE
8
Layer 1
10
-447.243135
20
179.792835
11
-442.025097
21
183.460453
0
LINE
8
Layer 1
10
-442.025097
20
183.460453
11
-436.646096
21
186.860024
0
LINE
8
Layer 1
10
-436.646096
20
186.860024
11
-431.116787
21
189.987137
0
LINE
8
Layer 1
10
-431.116787
20
189.987137
11
-425.447826
21
192.837377
0
LINE
8
Layer 1
10
-425.447826
20
192.837377
11
-419.649869
21
195.406330
0
LINE
8
Layer 1
10
-419.649869
20
195.406330
11
-413.733571
21
197.689583
0
LINE
8
Layer 1
10
-413.733571
20
197.689583
11
-407.709588
21
199.682722
0
LINE
8
Layer 1
10
-407.709588
20
199.682722
11
-401.588574
21
201.381333
0
LINE
8
Layer 1
10
-401.588574
20
201.381333
11
-395.381186
21
202.781003
0
LINE
8
Layer 1
10
-395.381186
20
202.781003
11
-389.098079
21
203.877319
0
LINE
8
Layer 1
10
-389.098079
20
203.877319
11
-382.749909
21
204.665866
0
LINE
8
Layer 1
10
-382.749909
20
204.665866
11
-376.347331
21
205.142231
0
LINE
8
Layer 1
10
-376.347331
20
205.142231
11
-369.901000
21
205.302000
0
LINE
8
Layer 1
10
-369.901000
20
205.302000
11
-363.454669
21
205.142231
0
LINE
8
Layer 1
10
-363.454669
20
205.142231
11
-357.052091
21
204.665866
0
LINE
8
Layer 1
10
-357.052091
20
204.665866
11
-350.703921
21
203.877319
0
LINE
8
Layer 1
10
-350.703921
20
203.877319
11
-344.420814
21
202.781003
0
LINE
8
Layer 1
10
-344.420814
20
202.781003
11
-338.213426
21
201.381333
0
LINE
8
Layer 1
10
-338.213426
20
201.381333
11
-332.092412
21
199.682722
0
LINE
8
Layer 1
10
-332.092412
20
199.682722
11
-326.068429
21
197.689583
0
LINE
8
Layer 1
10
-326.068429
20
197.689583
11
-320.152131
21
195.406330
0
LINE
8
Layer 1
10
-320.152131
20
195.406330
11
-314.354174
21
192.837377
0
LINE
8
Layer 1
10
-314.354174
20
192.837377
11
-308.685213
21
189.987137
0
LINE
8
Layer 1
10
-308.685213
20
189.987137
11
-303.155904
21
186.860024
0
LINE
8
Layer 1
10
-303.155904
20
186.860024
11
-297.776903
21
183.460453
0
LINE
8
Layer 1
10
-297.776903
20
183.460453
11
-292.558865
21
179.792835
0
LINE
8
Layer 1
10
-292.558865
20
179.792835
11
-287.512445
21
175.861586
0
LINE
8
Layer 1
10
-287.512445
20
175.861586
11
-282.648299
21
171.671118
0
LINE
8
Layer 1
10
-282.648299
20
171.671118
11
-277.977083
21
167.225846
0
LINE
8
Layer 1
10
-277.977083
20
167.225846
11
-273.531814
21
162.554626
0
LINE
8
Layer 1
10
-273.531814
20
162.554626
11
-269.341351
21
157.690477
0
LINE
8
Layer 1
10
-269.341351
20
157.690477
11
-265.410105
21
152.644055
0
LINE
8
Layer 1
10
-265.410105
20
152.644055
11
-261.742492
21
147.426014
0
LINE
8
Layer 1
10
-261.742492
20
147.426014
11
-258.342924
21
142.047010
0
LINE
8
Layer 1
10
-258.342924
20
142.047010
11
-255.215816
21
136.517699
0
LINE
8
Layer 1
10
-255.215816
20
136.517699
11
-252.365581
21
130.848736
0
LINE
8
Layer 1
10
-252.365581
20
130.848736
11
-249.796632
21
125.050777
0
LINE
8
Layer 1
10
-249.796632
20
125.050777
11
-247.513384
21
119.134477
0
LINE
8
Layer 1
10
-247.513384
20
119.134477
11
-245.520249
21
113.110492
0
LINE
8
Layer 1
10
-245.520249
20
113.110492
11
-243.821643
21
106.989477
0
LINE
8
Layer 1
10
-243.821643
20
106.989477
11
-242.421977
21
100.782088
0
LINE
8
Layer 1
10
-242.421977
20
100.782088
11
-241.325666
21
94.498981
0
LINE
8
Layer 1
10
-241.325666
20
94.498981
11
-240.537124
21
88.150810
0
LINE
8
Layer 1
10
-240.537124
20
88.150810
11
-240.060764
21
81.748231
0
LINE
8
Layer 1
10
-240.060764
20
81.748231
11
-239.901000
21
75.301900
0
LINE
8
Layer 1
10
-239.901000
20
75.301900
11
-240.070165
21
68.612125
0
LINE
8
Layer 1
10
-240.070165
20
68.612125
11
-240.572194
21
62.010170
0
LINE
8
Layer 1
10
-240.572194
20
62.010170
11
-241.398920
21
55.504205
0
LINE
8
Layer 1
10
-241.398920
20
55.504205
11
-242.542173
21
49.102397
0
LINE
8
Layer 1
10
-242.542173
20
49.102397
11
-243.993786
21
42.812914
0
LINE
8
Layer 1
10
-243.993786
20
42.812914
11
-245.745590
21
36.643924
0
LINE
8
Layer 1
10
-245.745590
20
36.643924
11
-247.789419
21
30.603596
0
LINE
8
Layer 1
10
-247.789419
20
30.603596
11
-250.117102
21
24.700097
0
LINE
8
Layer 1
10
-250.117102
20
24.700097
11
-252.720473
21
18.941597
0
LINE
8
Layer 1
10
-252.720473
20
18.941597
11
-255.591363
21
13.336262
0
LINE
8
Layer 1
10
-255.591363
20
13.336262
11
-258.721604
21
7.892260
0
LINE
8
Layer 1
10
-258.721604
20
7.892260
11
-262.103027
21
2.617761
0
LINE
8
Layer 1
10
-262.103027
20
2.617761
11
-265.727466
21
-2.479068
0
LINE
8
Layer 1
10
-265.727466
20
-2.479068
11
-269.586751
21
-7.390058
0
LINE
8
Layer 1
10
-269.586751
20
-7.390058
11
-273.672715
21
-12.107042
0
LINE
8
Layer 1
10
-273.672715
20
-12.107042
11
-277.977189
21
-16.621852
0
LINE
8
Layer 1
10
-277.977189
20
-16.621852
11
-282.492006
21
-20.926319
0
LINE
8
Layer 1
10
-282.492006
20
-20.926319
11
-287.208996
21
-25.012276
0
LINE
8
Layer 1
10
-287.208996
20
-25.012276
11
-292.119993
21
-28.871554
0
LINE
8
Layer 1
10
-292.119993
20
-28.871554
11
-297.216827
21
-32.495984
0
LINE
8
Layer 1
10
-297.216827
20
-32.495984
11
-302.491332
21
-35.877400
0
LINE
8
Layer 1
10
-302.491332
20
-35.877400
11
-307.935337
21
-39.007633
0
LINE
8
Layer 1
10
-307.935337
20
-39.007633
11
-313.540677
21
-41.878514
0
LINE
8
Layer 1
10
-313.540677
20
-41.878514
11
-319.299182
21
-44.481876
0
LINE
8
Layer 1
10
-319.299182
20
-44.481876
11
-325.202684
21
-46.809550
0
LINE
8
Layer 1
10
-325.202684
20
-46.809550
11
-331.243015
21
-48.853369
0
LINE
8
Layer 1
10
-331.243015
20
-48.853369
11
-337.412007
21
-50.605164
0
LINE
8
Layer 1
10
-337.412007
20
-50.605164
11
-343.701493
21
-52.056767
0
LINE
8
Layer 1
10
-343.701493
20
-52.056767
11
-350.103303
21
-53.200011
0
LINE
8
Layer 1
10
-350.103303
20
-53.200011
11
-356.609269
21
-54.026726
0
LINE
8
Layer 1
10
-356.609269
20
-54.026726
11
-363.211224
21
-54.528745
0
LINE
8
Layer 1
10
-363.211224
20
-54.528745
11
-369.901000
21
-54.697900
0
LINE
8
Layer 1
10
-369.901000
20
-54.697900
11
-369.933000
21
-54.697900
0
LINE
8
Layer 1
10
-369.933000
20
-54.697900
11
-369.933000
21
-54.697900
0
LINE
8
Layer 1
10
-403.392000
20
-43.435500
11
-402.113069
21
-43.028739
0
LINE
8
Layer 1
10
-402.113069
20
-43.028739
11
-400.017530
21
-41.774620
0
LINE
8
Layer 1
10
-400.017530
20
-41.774620
11
-394.832330
21
-38.543290
0
LINE
8
Layer 1
10
-394.832330
20
-38.543290
11
-391.897620
21
-36.572870
0
LINE
8
Layer 1
10
-391.897620
20
-36.572870
11
-391.937209
21
-35.631254
0
LINE
8
Layer 1
10
-391.937209
20
-35.631254
11
-392.327728
21
-33.482910
0
LINE
8
Layer 1
10
-392.327728
20
-33.482910
11
-393.764814
21
-27.182350
0
LINE
8
Layer 1
10
-393.764814
20
-27.182350
11
-395.415392
21
-20.903825
0
LINE
8
Layer 1
10
-395.415392
20
-20.903825
11
-396.072778
21
-18.783024
0
LINE
8
Layer 1
10
-396.072778
20
-18.783024
11
-396.485980
21
-17.879970
0
LINE
8
Layer 1
10
-396.485980
20
-17.879970
11
-398.933370
21
-17.179753
0
LINE
8
Layer 1
10
-398.933370
20
-17.179753
11
-401.609673
21
-16.577110
0
LINE
8
Layer 1
10
-401.609673
20
-16.577110
11
-403.116246
21
-16.000781
0
LINE
8
Layer 1
10
-403.116246
20
-16.000781
11
-404.103762
21
-15.053143
0
LINE
8
Layer 1
10
-404.103762
20
-15.053143
11
-405.222890
21
-13.336573
0
LINE
8
Layer 1
10
-405.222890
20
-13.336573
11
-418.007690
21
6.858027
0
LINE
8
Layer 1
10
-418.007690
20
6.858027
11
-424.908020
21
17.710027
0
LINE
8
Layer 1
10
-424.908020
20
17.710027
11
-428.287150
21
23.046657
0
LINE
8
Layer 1
10
-428.287150
20
23.046657
11
-433.861500
21
32.082797
0
LINE
8
Layer 1
10
-433.861500
20
32.082797
11
-431.933950
21
33.667197
0
LINE
8
Layer 1
10
-431.933950
20
33.667197
11
-430.349722
21
35.159504
0
LINE
8
Layer 1
10
-430.349722
20
35.159504
11
-429.315109
21
36.830072
0
LINE
8
Layer 1
10
-429.315109
20
36.830072
11
-428.829373
21
38.680723
0
LINE
8
Layer 1
10
-428.829373
20
38.680723
11
-428.891780
21
40.713277
0
LINE
8
Layer 1
10
-428.891780
20
40.713277
11
-429.251493
21
42.305771
0
LINE
8
Layer 1
10
-429.251493
20
42.305771
11
-429.708780
21
43.559617
0
LINE
8
Layer 1
10
-429.708780
20
43.559617
11
-430.777030
21
45.034374
0
LINE
8
Layer 1
10
-430.777030
20
45.034374
11
-432.220694
21
46.199730
0
LINE
8
Layer 1
10
-432.220694
20
46.199730
11
-433.893705
21
46.965256
0
LINE
8
Layer 1
10
-433.893705
20
46.965256
11
-435.650000
21
47.240527
0
LINE
8
Layer 1
10
-435.650000
20
47.240527
11
-437.029792
21
47.455610
0
LINE
8
Layer 1
10
-437.029792
20
47.455610
11
-438.158380
21
48.280777
0
LINE
8
Layer 1
10
-438.158380
20
48.280777
11
-438.841433
21
49.075190
0
LINE
8
Layer 1
10
-438.841433
20
49.075190
11
-439.138439
21
49.785258
0
LINE
8
Layer 1
10
-439.138439
20
49.785258
11
-439.071378
21
50.551436
0
LINE
8
Layer 1
10
-439.071378
20
50.551436
11
-438.662230
21
51.514177
0
LINE
8
Layer 1
10
-438.662230
20
51.514177
11
-438.312777
21
52.448991
0
LINE
8
Layer 1
10
-438.312777
20
52.448991
11
-438.452409
21
52.690725
0
LINE
8
Layer 1
10
-438.452409
20
52.690725
11
-438.816750
21
52.919777
0
LINE
8
Layer 1
10
-438.816750
20
52.919777
11
-439.605330
21
53.180715
0
LINE
8
Layer 1
10
-439.605330
20
53.180715
11
-440.531880
21
53.289262
0
LINE
8
Layer 1
10
-440.531880
20
53.289262
11
-441.141632
21
53.386847
0
LINE
8
Layer 1
10
-441.141632
20
53.386847
11
-441.673560
21
53.883060
0
LINE
8
Layer 1
10
-441.673560
20
53.883060
11
-442.344036
21
55.083089
0
LINE
8
Layer 1
10
-442.344036
20
55.083089
11
-443.369430
21
57.292122
0
LINE
8
Layer 1
10
-443.369430
20
57.292122
11
-444.938429
21
61.074144
0
LINE
8
Layer 1
10
-444.938429
20
61.074144
11
-446.451134
21
65.294631
0
LINE
8
Layer 1
10
-446.451134
20
65.294631
11
-447.768769
21
69.538688
0
LINE
8
Layer 1
10
-447.768769
20
69.538688
11
-448.752560
21
73.391422
0
LINE
8
Layer 1
10
-448.752560
20
73.391422
11
-449.863814
21
79.443076
0
LINE
8
Layer 1
10
-449.863814
20
79.443076
11
-450.144836
21
81.685157
0
LINE
8
Layer 1
10
-450.144836
20
81.685157
11
-450.134400
21
82.676132
0
LINE
8
Layer 1
10
-450.134400
20
82.676132
11
-449.471612
21
82.873556
0
LINE
8
Layer 1
10
-449.471612
20
82.873556
11
-447.879376
21
83.028983
0
LINE
8
Layer 1
10
-447.879376
20
83.028983
11
-441.644980
21
83.231137
0
LINE
8
Layer 1
10
-441.644980
20
83.231137
11
-438.033788
21
83.208262
0
LINE
8
Layer 1
10
-438.033788
20
83.208262
11
-435.907141
21
82.906858
0
LINE
8
Layer 1
10
-435.907141
20
82.906858
11
-435.275478
21
82.611900
0
LINE
8
Layer 1
10
-435.275478
20
82.611900
11
-434.864899
21
82.199541
0
LINE
8
Layer 1
10
-434.864899
20
82.199541
11
-434.625385
21
81.653857
0
LINE
8
Layer 1
10
-434.625385
20
81.653857
11
-434.506920
21
80.958927
0
LINE
8
Layer 1
10
-434.506920
20
80.958927
11
-434.250257
21
80.012161
0
LINE
8
Layer 1
10
-434.250257
20
80.012161
11
-433.962864
21
79.840514
0
LINE
8
Layer 1
10
-433.962864
20
79.840514
11
-433.505450
21
79.795687
0
LINE
8
Layer 1
10
-433.505450
20
79.795687
11
-433.000322
21
79.854021
0
LINE
8
Layer 1
10
-433.000322
20
79.854021
11
-432.712361
21
80.188439
0
LINE
8
Layer 1
10
-432.712361
20
80.188439
11
-432.424360
21
82.642027
0
LINE
8
Layer 1
10
-432.424360
20
82.642027
11
-432.384031
21
84.878938
0
LINE
8
Layer 1
10
-432.384031
20
84.878938
11
-432.556650
21
86.259897
0
LINE
8
Layer 1
10
-432.556650
20
86.259897
11
-433.269546
21
87.020836
0
LINE
8
Layer 1
10
-433.269546
20
87.020836
11
-434.527610
21
87.767297
0
LINE
8
Layer 1
10
-434.527610
20
87.767297
11
-438.143060
21
89.651733
0
LINE
8
Layer 1
10
-438.143060
20
89.651733
11
-441.291530
21
91.612537
0
LINE
8
Layer 1
10
-441.291530
20
91.612537
11
-443.758050
21
93.138027
0
LINE
8
Layer 1
10
-443.758050
20
93.138027
11
-444.934469
21
93.872148
0
LINE
8
Layer 1
10
-444.934469
20
93.872148
11
-445.490750
21
94.388077
0
LINE
8
Layer 1
10
-445.490750
20
94.388077
11
-444.568446
21
95.088971
0
LINE
8
Layer 1
10
-444.568446
20
95.088971
11
-442.089117
21
96.420085
0
LINE
8
Layer 1
10
-442.089117
20
96.420085
11
-435.214850
21
99.580527
0
LINE
8
Layer 1
10
-435.214850
20
99.580527
11
-431.974844
21
101.057656
0
LINE
8
Layer 1
10
-431.974844
20
101.057656
11
-431.511450
21
101.496673
0
LINE
8
Layer 1
10
-431.511450
20
101.496673
11
-431.525160
21
101.922507
0
LINE
8
Layer 1
10
-431.525160
20
101.922507
11
-431.209291
21
103.480762
0
LINE
8
Layer 1
10
-431.209291
20
103.480762
11
-430.155730
21
106.460207
0
LINE
8
Layer 1
10
-430.155730
20
106.460207
11
-427.779140
21
113.269617
0
LINE
8
Layer 1
10
-427.779140
20
113.269617
11
-427.088026
21
115.415990
0
LINE
8
Layer 1
10
-427.088026
20
115.415990
11
-426.547160
21
116.620317
0
LINE
8
Layer 1
10
-426.547160
20
116.620317
11
-424.985510
21
119.288887
0
LINE
8
Layer 1
10
-424.985510
20
119.288887
11
-422.477120
21
123.736157
0
LINE
8
Layer 1
10
-422.477120
20
123.736157
11
-420.449860
21
127.194867
0
LINE
8
Layer 1
10
-420.449860
20
127.194867
11
-418.815357
21
129.202546
0
LINE
8
Layer 1
10
-418.815357
20
129.202546
11
-415.547745
21
132.800336
0
LINE
8
Layer 1
10
-415.547745
20
132.800336
11
-408.173060
21
140.399267
0
LINE
8
Layer 1
10
-408.173060
20
140.399267
11
-406.886597
21
141.717752
0
LINE
8
Layer 1
10
-406.886597
20
141.717752
11
-406.565892
21
142.206757
0
LINE
8
Layer 1
10
-406.565892
20
142.206757
11
-406.460595
21
142.653276
0
LINE
8
Layer 1
10
-406.460595
20
142.653276
11
-406.571000
21
143.110564
0
LINE
8
Layer 1
10
-406.571000
20
143.110564
11
-406.897400
21
143.631877
0
LINE
8
Layer 1
10
-406.897400
20
143.631877
11
-408.199360
21
145.079597
0
LINE
8
Layer 1
10
-408.199360
20
145.079597
11
-408.958361
21
145.781984
0
LINE
8
Layer 1
10
-408.958361
20
145.781984
11
-409.631515
21
146.229821
0
LINE
8
Layer 1
10
-409.631515
20
146.229821
11
-410.191464
21
146.434354
0
LINE
8
Layer 1
10
-410.191464
20
146.434354
11
-410.610854
21
146.406830
0
LINE
8
Layer 1
10
-410.610854
20
146.406830
11
-410.862327
21
146.158495
0
LINE
8
Layer 1
10
-410.862327
20
146.158495
11
-410.918529
21
145.700597
0
LINE
8
Layer 1
10
-410.918529
20
145.700597
11
-410.752102
21
145.044382
0
LINE
8
Layer 1
10
-410.752102
20
145.044382
11
-410.335690
21
144.201097
0
LINE
8
Layer 1
10
-410.335690
20
144.201097
11
-409.603420
21
142.960867
0
LINE
8
Layer 1
10
-409.603420
20
142.960867
11
-410.435940
21
141.946977
0
LINE
8
Layer 1
10
-410.435940
20
141.946977
11
-412.085960
21
140.310377
0
LINE
8
Layer 1
10
-412.085960
20
140.310377
11
-412.897909
21
139.878007
0
LINE
8
Layer 1
10
-412.897909
20
139.878007
11
-413.686900
21
140.203407
0
LINE
8
Layer 1
10
-413.686900
20
140.203407
11
-415.897612
21
142.122278
0
LINE
8
Layer 1
10
-415.897612
20
142.122278
11
-419.211171
21
145.365570
0
LINE
8
Layer 1
10
-419.211171
20
145.365570
11
-422.226653
21
148.517680
0
LINE
8
Layer 1
10
-422.226653
20
148.517680
11
-423.543130
21
150.163007
0
LINE
8
Layer 1
10
-423.543130
20
150.163007
11
-423.187574
21
150.905649
0
LINE
8
Layer 1
10
-423.187574
20
150.905649
11
-422.262226
21
151.977573
0
LINE
8
Layer 1
10
-422.262226
20
151.977573
11
-420.979071
21
153.162180
0
LINE
8
Layer 1
10
-420.979071
20
153.162180
11
-419.550090
21
154.242867
0
LINE
8
Layer 1
10
-419.550090
20
154.242867
11
-418.353341
21
154.854391
0
LINE
8
Layer 1
10
-418.353341
20
154.854391
11
-417.415350
21
154.912077
0
LINE
8
Layer 1
10
-417.415350
20
154.912077
11
-415.379947
21
153.668098
0
LINE
8
Layer 1
10
-415.379947
20
153.668098
11
-411.623970
21
150.980527
0
LINE
8
Layer 1
10
-411.623970
20
150.980527
11
-405.459490
21
146.441277
0
LINE
8
Layer 1
10
-405.459490
20
146.441277
11
-403.338170
21
144.795377
0
LINE
8
Layer 1
10
-403.338170
20
144.795377
11
-402.455990
21
144.239167
0
LINE
8
Layer 1
10
-402.455990
20
144.239167
11
-401.675210
21
144.168027
0
LINE
8
Layer 1
10
-401.675210
20
144.168027
11
-400.707310
21
144.367497
0
LINE
8
Layer 1
10
-400.707310
20
144.367497
11
-400.498075
21
144.459271
0
LINE
8
Layer 1
10
-400.498075
20
144.459271
11
-400.361522
21
144.742907
0
LINE
8
Layer 1
10
-400.361522
20
144.742907
11
-400.313035
21
145.996412
0
LINE
8
Layer 1
10
-400.313035
20
145.996412
11
-401.160520
21
152.022847
0
LINE
8
Layer 1
10
-401.160520
20
152.022847
11
-402.377879
21
159.631964
0
LINE
8
Layer 1
10
-402.377879
20
159.631964
11
-402.891160
21
163.865047
0
LINE
8
Layer 1
10
-402.891160
20
163.865047
11
-402.595610
21
164.241974
0
LINE
8
Layer 1
10
-402.595610
20
164.241974
11
-401.742107
21
164.753247
0
LINE
8
Layer 1
10
-401.742107
20
164.753247
11
-398.682970
21
166.057629
0
LINE
8
Layer 1
10
-398.682970
20
166.057629
11
-394.357202
21
167.535798
0
LINE
8
Layer 1
10
-394.357202
20
167.535798
11
-389.408260
21
168.945357
0
LINE
8
Layer 1
10
-389.408260
20
168.945357
11
-384.921006
21
169.923707
0
LINE
8
Layer 1
10
-384.921006
20
169.923707
11
-383.975819
21
169.918223
0
LINE
8
Layer 1
10
-383.975819
20
169.918223
11
-383.761601
21
169.799472
0
LINE
8
Layer 1
10
-383.761601
20
169.799472
11
-383.694400
21
169.606297
0
LINE
8
Layer 1
10
-383.694400
20
169.606297
11
-382.984870
21
164.536327
0
LINE
8
Layer 1
10
-382.984870
20
164.536327
11
-382.184400
21
157.536747
0
LINE
8
Layer 1
10
-382.184400
20
157.536747
11
-382.093500
21
155.224227
0
LINE
8
Layer 1
10
-382.093500
20
155.224227
11
-383.694440
21
154.456317
0
LINE
8
Layer 1
10
-383.694440
20
154.456317
11
-384.884854
21
153.717256
0
LINE
8
Layer 1
10
-384.884854
20
153.717256
11
-385.191442
21
153.364897
0
LINE
8
Layer 1
10
-385.191442
20
153.364897
11
-385.295350
21
153.033147
0
LINE
8
Layer 1
10
-385.295350
20
153.033147
11
-385.217736
21
152.697109
0
LINE
8
Layer 1
10
-385.217736
20
152.697109
11
-384.925300
21
152.480441
0
LINE
8
Layer 1
10
-384.925300
20
152.480441
11
-383.338390
21
152.264717
0
LINE
8
Layer 1
10
-383.338390
20
152.264717
11
-379.948390
21
152.363417
0
LINE
8
Layer 1
10
-379.948390
20
152.363417
11
-379.101747
21
152.541827
0
LINE
8
Layer 1
10
-379.101747
20
152.541827
11
-378.510884
21
152.973066
0
LINE
8
Layer 1
10
-378.510884
20
152.973066
11
-377.913756
21
153.972810
0
LINE
8
Layer 1
10
-377.913756
20
153.972810
11
-377.048320
21
155.856737
0
LINE
8
Layer 1
10
-377.048320
20
155.856737
11
-373.526530
21
163.586284
0
LINE
8
Layer 1
10
-373.526530
20
163.586284
11
-372.026920
21
166.500037
0
LINE
8
Layer 1
10
-372.026920
20
166.500037
11
-371.783067
21
166.448143
0
LINE
8
Layer 1
10
-371.783067
20
166.448143
11
-371.367876
21
166.025088
0
LINE
8
Layer 1
10
-371.367876
20
166.025088
11
-370.156240
21
164.226787
0
LINE
8
Layer 1
10
-370.156240
20
164.226787
11
-367.530040
21
160.027567
0
LINE
8
Layer 1
10
-367.530040
20
160.027567
11
-365.173080
21
155.935827
0
LINE
8
Layer 1
10
-365.173080
20
155.935827
11
-363.896150
21
153.445017
0
LINE
8
Layer 1
10
-363.896150
20
153.445017
11
-360.719610
21
153.570597
0
LINE
8
Layer 1
10
-360.719610
20
153.570597
11
-358.388459
21
153.741458
0
LINE
8
Layer 1
10
-358.388459
20
153.741458
11
-357.243860
21
153.976767
0
LINE
8
Layer 1
10
-357.243860
20
153.976767
11
-357.149896
21
154.395882
0
LINE
8
Layer 1
10
-357.149896
20
154.395882
11
-357.345140
21
155.008227
0
LINE
8
Layer 1
10
-357.345140
20
155.008227
11
-357.938966
21
155.586782
0
LINE
8
Layer 1
10
-357.938966
20
155.586782
11
-358.990510
21
155.758057
0
LINE
8
Layer 1
10
-358.990510
20
155.758057
11
-359.954712
21
155.898877
0
LINE
8
Layer 1
10
-359.954712
20
155.898877
11
-360.435900
21
156.283087
0
LINE
8
Layer 1
10
-360.435900
20
156.283087
11
-360.633391
21
159.104812
0
LINE
8
Layer 1
10
-360.633391
20
159.104812
11
-360.614170
21
166.724287
0
LINE
8
Layer 1
10
-360.614170
20
166.724287
11
-360.567670
21
170.752457
0
LINE
8
Layer 1
10
-360.567670
20
170.752457
11
-358.521810
21
170.504417
0
LINE
8
Layer 1
10
-358.521810
20
170.504417
11
-355.914230
21
169.964917
0
LINE
8
Layer 1
10
-355.914230
20
169.964917
11
-355.641327
21
169.608576
0
LINE
8
Layer 1
10
-355.641327
20
169.608576
11
-355.357077
21
168.828001
0
LINE
8
Layer 1
10
-355.357077
20
168.828001
11
-354.767330
21
166.069553
0
LINE
8
Layer 1
10
-354.767330
20
166.069553
11
-354.170578
21
161.840388
0
LINE
8
Layer 1
10
-354.170578
20
161.840388
11
-353.592410
21
156.291317
0
LINE
8
Layer 1
10
-353.592410
20
156.291317
11
-352.977185
21
152.133535
0
LINE
8
Layer 1
10
-352.977185
20
152.133535
11
-352.581007
21
150.833703
0
LINE
8
Layer 1
10
-352.581007
20
150.833703
11
-352.152170
21
150.165077
0
LINE
8
Layer 1
10
-352.152170
20
150.165077
11
-351.444902
21
149.977240
0
LINE
8
Layer 1
10
-351.444902
20
149.977240
11
-350.577654
21
150.337325
0
LINE
8
Layer 1
10
-350.577654
20
150.337325
11
-349.557156
21
151.240833
0
LINE
8
Layer 1
10
-349.557156
20
151.240833
11
-348.390140
21
152.683267
0
LINE
8
Layer 1
10
-348.390140
20
152.683267
11
-346.364410
21
155.402997
0
LINE
8
Layer 1
10
-346.364410
20
155.402997
11
-343.876190
21
158.604357
0
LINE
8
Layer 1
10
-343.876190
20
158.604357
11
-341.098600
21
162.081147
0
LINE
8
Layer 1
10
-341.098600
20
162.081147
11
-339.349330
21
164.171457
0
LINE
8
Layer 1
10
-339.349330
20
164.171457
11
-338.588650
21
165.097497
0
LINE
8
Layer 1
10
-338.588650
20
165.097497
11
-336.146950
21
163.976117
0
LINE
8
Layer 1
10
-336.146950
20
163.976117
11
-332.051381
21
162.051305
0
LINE
8
Layer 1
10
-332.051381
20
162.051305
11
-331.907645
21
161.851248
0
LINE
8
Layer 1
10
-331.907645
20
161.851248
11
-332.460350
21
161.825347
0
LINE
8
Layer 1
10
-332.460350
20
161.825347
11
-333.731808
21
161.542610
0
LINE
8
Layer 1
10
-333.731808
20
161.542610
11
-335.303695
21
160.854162
0
LINE
8
Layer 1
10
-335.303695
20
160.854162
11
-336.888190
21
159.908974
0
LINE
8
Layer 1
10
-336.888190
20
159.908974
11
-338.197470
21
158.856017
0
LINE
8
Layer 1
10
-338.197470
20
158.856017
11
-339.176552
21
157.738318
0
LINE
8
Layer 1
10
-339.176552
20
157.738318
11
-339.959725
21
156.511993
0
LINE
8
Layer 1
10
-339.959725
20
156.511993
11
-340.543388
21
155.195439
0
LINE
8
Layer 1
10
-340.543388
20
155.195439
11
-340.923942
21
153.807057
0
LINE
8
Layer 1
10
-340.923942
20
153.807057
11
-341.097788
21
152.365245
0
LINE
8
Layer 1
10
-341.097788
20
152.365245
11
-341.061326
21
150.888401
0
LINE
8
Layer 1
10
-341.061326
20
150.888401
11
-340.810957
21
149.394926
0
LINE
8
Layer 1
10
-340.810957
20
149.394926
11
-340.343080
21
147.903217
0
LINE
8
Layer 1
10
-340.343080
20
147.903217
11
-339.443444
21
146.064961
0
LINE
8
Layer 1
10
-339.443444
20
146.064961
11
-338.220229
21
144.513475
0
LINE
8
Layer 1
10
-338.220229
20
144.513475
11
-336.507757
21
143.080342
0
LINE
8
Layer 1
10
-336.507757
20
143.080342
11
-334.140350
21
141.597147
0
LINE
8
Layer 1
10
-334.140350
20
141.597147
11
-332.511378
21
140.594461
0
LINE
8
Layer 1
10
-332.511378
20
140.594461
11
-331.000535
21
139.487124
0
LINE
8
Layer 1
10
-331.000535
20
139.487124
11
-327.817760
21
136.546807
0
LINE
8
Layer 1
10
-327.817760
20
136.546807
11
-325.300284
21
134.160261
0
LINE
8
Layer 1
10
-325.300284
20
134.160261
11
-324.524785
21
133.598704
0
LINE
8
Layer 1
10
-324.524785
20
133.598704
11
-324.091370
21
133.474647
0
LINE
8
Layer 1
10
-324.091370
20
133.474647
11
-323.690952
21
133.827634
0
LINE
8
Layer 1
10
-323.690952
20
133.827634
11
-323.592449
21
134.408230
0
LINE
8
Layer 1
10
-323.592449
20
134.408230
11
-323.789781
21
135.135949
0
LINE
8
Layer 1
10
-323.789781
20
135.135949
11
-324.276870
21
135.930307
0
LINE
8
Layer 1
10
-324.276870
20
135.930307
11
-324.988460
21
137.093547
0
LINE
8
Layer 1
10
-324.988460
20
137.093547
11
-324.357466
21
137.940024
0
LINE
8
Layer 1
10
-324.357466
20
137.940024
11
-322.942350
21
139.446517
0
LINE
8
Layer 1
10
-322.942350
20
139.446517
11
-321.459914
21
140.884594
0
LINE
8
Layer 1
10
-321.459914
20
140.884594
11
-320.626960
21
141.525827
0
LINE
8
Layer 1
10
-320.626960
20
141.525827
11
-319.814401
21
140.914634
0
LINE
8
Layer 1
10
-319.814401
20
140.914634
11
-318.212382
21
139.415777
0
LINE
8
Layer 1
10
-318.212382
20
139.415777
11
-314.704350
21
135.763397
0
LINE
8
Layer 1
10
-314.704350
20
135.763397
11
-313.562270
21
134.447707
0
LINE
8
Layer 1
10
-313.562270
20
134.447707
11
-315.628300
21
132.479867
0
LINE
8
Layer 1
10
-315.628300
20
132.479867
11
-317.256516
21
131.087421
0
LINE
8
Layer 1
10
-317.256516
20
131.087421
11
-318.269500
21
130.503767
0
LINE
8
Layer 1
10
-318.269500
20
130.503767
11
-318.940922
21
130.707678
0
LINE
8
Layer 1
10
-318.940922
20
130.707678
11
-319.748470
21
131.208117
0
LINE
8
Layer 1
10
-319.748470
20
131.208117
11
-320.506647
21
131.699691
0
LINE
8
Layer 1
10
-320.506647
20
131.699691
11
-321.135650
21
131.889645
0
LINE
8
Layer 1
10
-321.135650
20
131.889645
11
-321.615343
21
131.776557
0
LINE
8
Layer 1
10
-321.615343
20
131.776557
11
-321.925590
21
131.359007
0
LINE
8
Layer 1
10
-321.925590
20
131.359007
11
-321.895892
21
130.985213
0
LINE
8
Layer 1
10
-321.895892
20
130.985213
11
-321.594395
21
130.423182
0
LINE
8
Layer 1
10
-321.594395
20
130.423182
11
-320.184610
21
128.747287
0
LINE
8
Layer 1
10
-320.184610
20
128.747287
11
-318.802936
21
127.113117
0
LINE
8
Layer 1
10
-318.802936
20
127.113117
11
-318.228150
21
126.064247
0
LINE
8
Layer 1
10
-318.228150
20
126.064247
11
-317.556010
21
124.537016
0
LINE
8
Layer 1
10
-317.556010
20
124.537016
11
-315.939920
21
121.752357
0
LINE
8
Layer 1
10
-315.939920
20
121.752357
11
-314.095497
21
118.527118
0
LINE
8
Layer 1
10
-314.095497
20
118.527118
11
-312.874460
21
115.940827
0
LINE
8
Layer 1
10
-312.874460
20
115.940827
11
-312.097250
21
113.809697
0
LINE
8
Layer 1
10
-312.097250
20
113.809697
11
-304.307540
21
110.699807
0
LINE
8
Layer 1
10
-304.307540
20
110.699807
11
-298.885439
21
108.431281
0
LINE
8
Layer 1
10
-298.885439
20
108.431281
11
-297.297807
21
107.684901
0
LINE
8
Layer 1
10
-297.297807
20
107.684901
11
-296.788110
21
107.343937
0
LINE
8
Layer 1
10
-296.788110
20
107.343937
11
-300.616820
21
105.948677
0
LINE
8
Layer 1
10
-300.616820
20
105.948677
11
-305.021200
21
104.470207
0
LINE
8
Layer 1
10
-305.021200
20
104.470207
11
-305.735176
21
104.383441
0
LINE
8
Layer 1
10
-305.735176
20
104.383441
11
-306.416416
21
104.642418
0
LINE
8
Layer 1
10
-306.416416
20
104.642418
11
-306.994330
21
105.201315
0
LINE
8
Layer 1
10
-306.994330
20
105.201315
11
-307.398330
21
106.014307
0
LINE
8
Layer 1
10
-307.398330
20
106.014307
11
-307.801508
21
106.513650
0
LINE
8
Layer 1
10
-307.801508
20
106.513650
11
-308.390445
21
106.614853
0
LINE
8
Layer 1
10
-308.390445
20
106.614853
11
-308.910817
21
106.354416
0
LINE
8
Layer 1
10
-308.910817
20
106.354416
11
-309.108300
21
105.768837
0
LINE
8
Layer 1
10
-309.108300
20
105.768837
11
-307.851952
21
101.685721
0
LINE
8
Layer 1
10
-307.851952
20
101.685721
11
-306.400950
21
97.914537
0
LINE
8
Layer 1
10
-306.400950
20
97.914537
11
-306.098724
21
97.866547
0
LINE
8
Layer 1
10
-306.098724
20
97.866547
11
-305.607730
21
97.986887
0
LINE
8
Layer 1
10
-305.607730
20
97.986887
11
-305.302185
21
98.170404
0
LINE
8
Layer 1
10
-305.302185
20
98.170404
11
-305.143051
21
98.476868
0
LINE
8
Layer 1
10
-305.143051
20
98.476868
11
-305.192760
21
99.765587
0
LINE
8
Layer 1
10
-305.192760
20
99.765587
11
-305.239147
21
101.066751
0
LINE
8
Layer 1
10
-305.239147
20
101.066751
11
-305.081078
21
101.406761
0
LINE
8
Layer 1
10
-305.081078
20
101.406761
11
-304.780380
21
101.638337
0
LINE
8
Layer 1
10
-304.780380
20
101.638337
11
-297.365185
21
104.354727
0
LINE
8
Layer 1
10
-297.365185
20
104.354727
11
-290.609180
21
106.553797
0
LINE
8
Layer 1
10
-290.609180
20
106.553797
11
-290.250030
21
103.729157
0
LINE
8
Layer 1
10
-290.250030
20
103.729157
11
-290.022120
21
101.036817
0
LINE
8
Layer 1
10
-290.022120
20
101.036817
11
-291.405520
21
100.181577
0
LINE
8
Layer 1
10
-291.405520
20
100.181577
11
-296.525100
21
97.673207
0
LINE
8
Layer 1
10
-296.525100
20
97.673207
11
-304.085360
21
94.215537
0
LINE
8
Layer 1
10
-304.085360
20
94.215537
11
-307.330099
21
92.529832
0
LINE
8
Layer 1
10
-307.330099
20
92.529832
11
-307.812346
21
91.996359
0
LINE
8
Layer 1
10
-307.812346
20
91.996359
11
-307.910440
21
91.391417
0
LINE
8
Layer 1
10
-307.910440
20
91.391417
11
-307.844367
21
90.818405
0
LINE
8
Layer 1
10
-307.844367
20
90.818405
11
-307.548942
21
90.391314
0
LINE
8
Layer 1
10
-307.548942
20
90.391314
11
-306.878357
21
89.984330
0
LINE
8
Layer 1
10
-306.878357
20
89.984330
11
-305.686800
21
89.471637
0
LINE
8
Layer 1
10
-305.686800
20
89.471637
11
-300.601940
21
87.487297
0
LINE
8
Layer 1
10
-300.601940
20
87.487297
11
-298.258840
21
86.733827
0
LINE
8
Layer 1
10
-298.258840
20
86.733827
11
-293.599180
21
85.057957
0
LINE
8
Layer 1
10
-293.599180
20
85.057957
11
-289.332770
21
83.382097
0
LINE
8
Layer 1
10
-289.332770
20
83.382097
11
-289.524490
21
81.766687
0
LINE
8
Layer 1
10
-289.524490
20
81.766687
11
-290.316834
21
76.280634
0
LINE
8
Layer 1
10
-290.316834
20
76.280634
11
-291.380295
21
71.348171
0
LINE
8
Layer 1
10
-291.380295
20
71.348171
11
-292.868226
21
66.373465
0
LINE
8
Layer 1
10
-292.868226
20
66.373465
11
-294.933980
21
60.760687
0
LINE
8
Layer 1
10
-294.933980
20
60.760687
11
-297.549997
21
54.401912
0
LINE
8
Layer 1
10
-297.549997
20
54.401912
11
-298.446022
21
52.626709
0
LINE
8
Layer 1
10
-298.446022
20
52.626709
11
-299.359030
21
51.154557
0
LINE
8
Layer 1
10
-299.359030
20
51.154557
11
-300.119744
21
49.901198
0
LINE
8
Layer 1
10
-300.119744
20
49.901198
11
-300.436990
21
49.136077
0
LINE
8
Layer 1
10
-300.436990
20
49.136077
11
-300.684772
21
48.545820
0
LINE
8
Layer 1
10
-300.684772
20
48.545820
11
-301.278290
21
47.712907
0
LINE
8
Layer 1
10
-301.278290
20
47.712907
11
-302.694230
21
45.639647
0
LINE
8
Layer 1
10
-302.694230
20
45.639647
11
-303.833690
21
43.860427
0
LINE
8
Layer 1
10
-303.833690
20
43.860427
11
-304.379835
21
43.346505
0
LINE
8
Layer 1
10
-304.379835
20
43.346505
11
-304.848100
21
43.757591
0
LINE
8
Layer 1
10
-304.848100
20
43.757591
11
-305.374968
21
44.277671
0
LINE
8
Layer 1
10
-305.374968
20
44.277671
11
-306.044720
21
44.655104
0
LINE
8
Layer 1
10
-306.044720
20
44.655104
11
-306.807133
21
44.888873
0
LINE
8
Layer 1
10
-306.807133
20
44.888873
11
-307.611987
21
44.977960
0
LINE
8
Layer 1
10
-307.611987
20
44.977960
11
-308.409062
21
44.921349
0
LINE
8
Layer 1
10
-308.409062
20
44.921349
11
-309.148134
21
44.718021
0
LINE
8
Layer 1
10
-309.148134
20
44.718021
11
-309.778984
21
44.366959
0
LINE
8
Layer 1
10
-309.778984
20
44.366959
11
-310.251390
21
43.867145
0
LINE
8
Layer 1
10
-310.251390
20
43.867145
11
-310.704921
21
42.494080
0
LINE
8
Layer 1
10
-310.704921
20
42.494080
11
-311.008970
21
40.362455
0
LINE
8
Layer 1
10
-311.008970
20
40.362455
11
-311.157317
21
38.826841
0
LINE
8
Layer 1
10
-311.157317
20
38.826841
11
-311.419060
21
37.810759
0
LINE
8
Layer 1
10
-311.419060
20
37.810759
11
-311.955573
21
36.930672
0
LINE
8
Layer 1
10
-311.955573
20
36.930672
11
-312.928230
21
35.803045
0
LINE
8
Layer 1
10
-312.928230
20
35.803045
11
-314.658350
21
33.631605
0
LINE
8
Layer 1
10
-314.658350
20
33.631605
11
-315.382376
21
33.443243
0
LINE
8
Layer 1
10
-315.382376
20
33.443243
11
-317.105740
21
33.364952
0
LINE
8
Layer 1
10
-317.105740
20
33.364952
11
-319.077584
21
33.206186
0
LINE
8
Layer 1
10
-319.077584
20
33.206186
11
-319.755565
21
32.958745
0
LINE
8
Layer 1
10
-319.755565
20
32.958745
11
-320.267035
21
32.555724
0
LINE
8
Layer 1
10
-320.267035
20
32.555724
11
-320.641081
21
31.964469
0
LINE
8
Layer 1
10
-320.641081
20
31.964469
11
-320.906789
21
31.152324
0
LINE
8
Layer 1
10
-320.906789
20
31.152324
11
-321.229540
21
28.734742
0
LINE
8
Layer 1
10
-321.229540
20
28.734742
11
-321.387650
21
26.782412
0
LINE
8
Layer 1
10
-321.387650
20
26.782412
11
-321.909211
21
25.757418
0
LINE
8
Layer 1
10
-321.909211
20
25.757418
11
-323.081090
21
24.292122
0
LINE
8
Layer 1
10
-323.081090
20
24.292122
11
-325.248930
21
21.712432
0
LINE
8
Layer 1
10
-325.248930
20
21.712432
11
-325.718315
21
21.147086
0
LINE
8
Layer 1
10
-325.718315
20
21.147086
11
-326.098480
21
20.911965
0
LINE
8
Layer 1
10
-326.098480
20
20.911965
11
-327.129170
21
21.588574
0
LINE
8
Layer 1
10
-327.129170
20
21.588574
11
-329.162880
21
23.215185
0
LINE
8
Layer 1
10
-329.162880
20
23.215185
11
-331.196291
21
24.756316
0
LINE
8
Layer 1
10
-331.196291
20
24.756316
11
-332.894706
21
25.606560
0
LINE
8
Layer 1
10
-332.894706
20
25.606560
11
-334.506558
21
25.847902
0
LINE
8
Layer 1
10
-334.506558
20
25.847902
11
-336.280280
21
25.562325
0
LINE
8
Layer 1
10
-336.280280
20
25.562325
11
-337.357619
21
25.041754
0
LINE
8
Layer 1
10
-337.357619
20
25.041754
11
-338.680321
21
24.057021
0
LINE
8
Layer 1
10
-338.680321
20
24.057021
11
-341.612165
21
21.193253
0
LINE
8
Layer 1
10
-341.612165
20
21.193253
11
-344.176509
21
17.967397
0
LINE
8
Layer 1
10
-344.176509
20
17.967397
11
-345.039836
21
16.530052
0
LINE
8
Layer 1
10
-345.039836
20
16.530052
11
-345.474050
21
15.375825
0
LINE
8
Layer 1
10
-345.474050
20
15.375825
11
-345.577894
21
14.002976
0
LINE
8
Layer 1
10
-345.577894
20
14.002976
11
-345.446010
21
12.540970
0
LINE
8
Layer 1
10
-345.446010
20
12.540970
11
-345.117048
21
11.223084
0
LINE
8
Layer 1
10
-345.117048
20
11.223084
11
-344.629660
21
10.282595
0
LINE
8
Layer 1
10
-344.629660
20
10.282595
11
-343.134130
21
8.224325
0
LINE
8
Layer 1
10
-343.134130
20
8.224325
11
-341.688516
21
6.459066
0
LINE
8
Layer 1
10
-341.688516
20
6.459066
11
-339.364835
21
4.009714
0
LINE
8
Layer 1
10
-339.364835
20
4.009714
11
-336.613152
21
1.330987
0
LINE
8
Layer 1
10
-336.613152
20
1.330987
11
-333.883530
21
-1.122395
0
LINE
8
Layer 1
10
-333.883530
20
-1.122395
11
-331.036690
21
-3.624565
0
LINE
8
Layer 1
10
-331.036690
20
-3.624565
11
-326.342620
21
-7.722258
0
LINE
8
Layer 1
10
-326.342620
20
-7.722258
11
-321.047110
21
-11.965655
0
LINE
8
Layer 1
10
-321.047110
20
-11.965655
11
-318.510840
21
-13.654435
0
LINE
8
Layer 1
10
-318.510840
20
-13.654435
11
-315.713580
21
-15.032645
0
LINE
8
Layer 1
10
-315.713580
20
-15.032645
11
-314.689485
21
-15.396283
0
LINE
8
Layer 1
10
-314.689485
20
-15.396283
11
-313.852586
21
-15.563759
0
LINE
8
Layer 1
10
-313.852586
20
-15.563759
11
-311.895720
21
-15.389211
0
LINE
8
Layer 1
10
-311.895720
20
-15.389211
11
-310.226534
21
-14.900338
0
LINE
8
Layer 1
10
-310.226534
20
-14.900338
11
-309.042170
21
-14.222361
0
LINE
8
Layer 1
10
-309.042170
20
-14.222361
11
-306.134347
21
-11.272258
0
LINE
8
Layer 1
10
-306.134347
20
-11.272258
11
-303.318460
21
-8.034111
0
LINE
8
Layer 1
10
-303.318460
20
-8.034111
11
-302.537943
21
-6.994730
0
LINE
8
Layer 1
10
-302.537943
20
-6.994730
11
-302.098623
21
-6.180123
0
LINE
8
Layer 1
10
-302.098623
20
-6.180123
11
-301.905035
21
-5.340501
0
LINE
8
Layer 1
10
-301.905035
20
-5.340501
11
-301.861720
21
-4.226071
0
LINE
8
Layer 1
10
-301.861720
20
-4.226071
11
-301.986675
21
-2.536608
0
LINE
8
Layer 1
10
-301.986675
20
-2.536608
11
-302.287010
21
-1.252611
0
LINE
8
Layer 1
10
-302.287010
20
-1.252611
11
-303.164304
21
-0.056221
0
LINE
8
Layer 1
10
-303.164304
20
-0.056221
11
-304.736049
21
1.642238
0
LINE
8
Layer 1
10
-304.736049
20
1.642238
11
-306.333456
21
3.163350
0
LINE
8
Layer 1
10
-306.333456
20
3.163350
11
-307.287740
21
3.827699
0
LINE
8
Layer 1
10
-307.287740
20
3.827699
11
-307.476104
21
3.989134
0
LINE
8
Layer 1
10
-307.476104
20
3.989134
11
-307.554390
21
4.367716
0
LINE
8
Layer 1
10
-307.554390
20
4.367716
11
-307.455617
21
4.625778
0
LINE
8
Layer 1
10
-307.455617
20
4.625778
11
-307.116415
21
4.789872
0
LINE
8
Layer 1
10
-307.116415
20
4.789872
11
-305.459420
21
4.901534
0
LINE
8
Layer 1
10
-305.459420
20
4.901534
11
-303.615888
21
5.038746
0
LINE
8
Layer 1
10
-303.615888
20
5.038746
11
-302.986602
21
5.256075
0
LINE
8
Layer 1
10
-302.986602
20
5.256075
11
-302.514856
21
5.613277
0
LINE
8
Layer 1
10
-302.514856
20
5.613277
11
-302.172567
21
6.140894
0
LINE
8
Layer 1
10
-302.172567
20
6.140894
11
-301.931649
21
6.869469
0
LINE
8
Layer 1
10
-301.931649
20
6.869469
11
-301.641590
21
9.051664
0
LINE
8
Layer 1
10
-301.641590
20
9.051664
11
-301.409040
21
11.956914
0
LINE
8
Layer 1
10
-301.409040
20
11.956914
11
-299.346620
21
14.242044
0
LINE
8
Layer 1
10
-299.346620
20
14.242044
11
-297.284220
21
16.527174
0
LINE
8
Layer 1
10
-297.284220
20
16.527174
11
-295.388710
21
16.370078
0
LINE
8
Layer 1
10
-295.388710
20
16.370078
11
-294.333155
21
16.359660
0
LINE
8
Layer 1
10
-294.333155
20
16.359660
11
-293.451924
21
16.528839
0
LINE
8
Layer 1
10
-293.451924
20
16.528839
11
-292.733914
21
16.893046
0
LINE
8
Layer 1
10
-292.733914
20
16.893046
11
-292.168018
21
17.467710
0
LINE
8
Layer 1
10
-292.168018
20
17.467710
11
-291.743130
21
18.268261
0
LINE
8
Layer 1
10
-291.743130
20
18.268261
11
-291.448144
21
19.310129
0
LINE
8
Layer 1
10
-291.448144
20
19.310129
11
-291.203460
21
22.179538
0
LINE
8
Layer 1
10
-291.203460
20
22.179538
11
-291.118409
21
23.029027
0
LINE
8
Layer 1
10
-291.118409
20
23.029027
11
-290.784876
21
23.827267
0
LINE
8
Layer 1
10
-290.784876
20
23.827267
11
-290.054468
21
24.824578
0
LINE
8
Layer 1
10
-290.054468
20
24.824578
11
-288.778790
21
26.271278
0
LINE
8
Layer 1
10
-288.778790
20
26.271278
11
-286.682434
21
28.830449
0
LINE
8
Layer 1
10
-286.682434
20
28.830449
11
-284.316460
21
32.049222
0
LINE
8
Layer 1
10
-284.316460
20
32.049222
11
-282.382411
21
34.932098
0
LINE
8
Layer 1
10
-282.382411
20
34.932098
11
-281.581830
21
36.483578
0
LINE
8
Layer 1
10
-281.581830
20
36.483578
11
-281.416608
21
36.869331
0
LINE
8
Layer 1
10
-281.416608
20
36.869331
11
-281.019590
21
37.302133
0
LINE
8
Layer 1
10
-281.019590
20
37.302133
11
-280.277800
21
38.329718
0
LINE
8
Layer 1
10
-280.277800
20
38.329718
11
-279.283260
21
40.145373
0
LINE
8
Layer 1
10
-279.283260
20
40.145373
11
-277.195010
21
44.081053
0
LINE
8
Layer 1
10
-277.195010
20
44.081053
11
-275.615920
21
47.437793
0
LINE
8
Layer 1
10
-275.615920
20
47.437793
11
-273.482353
21
52.680742
0
LINE
8
Layer 1
10
-273.482353
20
52.680742
11
-271.463622
21
58.092446
0
LINE
8
Layer 1
10
-271.463622
20
58.092446
11
-270.229040
21
61.955453
0
LINE
8
Layer 1
10
-270.229040
20
61.955453
11
-269.100930
21
65.990863
0
LINE
8
Layer 1
10
-269.100930
20
65.990863
11
-267.969776
21
71.556450
0
LINE
8
Layer 1
10
-267.969776
20
71.556450
11
-266.799270
21
78.866563
0
LINE
8
Layer 1
10
-266.799270
20
78.866563
11
-266.414270
21
87.685663
0
LINE
8
Layer 1
10
-266.414270
20
87.685663
11
-266.418724
21
94.474573
0
LINE
8
Layer 1
10
-266.418724
20
94.474573
11
-266.846374
21
101.150969
0
LINE
8
Layer 1
10
-266.846374
20
101.150969
11
-267.698732
21
107.721400
0
LINE
8
Layer 1
10
-267.698732
20
107.721400
11
-268.977310
21
114.192413
0
LINE
8
Layer 1
10
-268.977310
20
114.192413
11
-270.683621
21
120.570558
0
LINE
8
Layer 1
10
-270.683621
20
120.570558
11
-272.819176
21
126.862382
0
LINE
8
Layer 1
10
-272.819176
20
126.862382
11
-275.385489
21
133.074434
0
LINE
8
Layer 1
10
-275.385489
20
133.074434
11
-278.384070
21
139.213263
0
LINE
8
Layer 1
10
-278.384070
20
139.213263
11
-281.508946
21
144.681095
0
LINE
8
Layer 1
10
-281.508946
20
144.681095
11
-285.052572
21
150.042972
0
LINE
8
Layer 1
10
-285.052572
20
150.042972
11
-288.959587
21
155.237408
0
LINE
8
Layer 1
10
-288.959587
20
155.237408
11
-293.174630
21
160.202913
0
LINE
8
Layer 1
10
-293.174630
20
160.202913
11
-297.642341
21
164.877999
0
LINE
8
Layer 1
10
-297.642341
20
164.877999
11
-302.307358
21
169.201179
0
LINE
8
Layer 1
10
-302.307358
20
169.201179
11
-307.114321
21
173.110963
0
LINE
8
Layer 1
10
-307.114321
20
173.110963
11
-312.007870
21
176.545863
0
LINE
8
Layer 1
10
-312.007870
20
176.545863
11
-316.093430
21
179.274373
0
LINE
8
Layer 1
10
-316.093430
20
179.274373
11
-318.355444
21
180.638087
0
LINE
8
Layer 1
10
-318.355444
20
180.638087
11
-323.743090
21
183.413143
0
LINE
8
Layer 1
10
-323.743090
20
183.413143
11
-327.573093
21
185.150068
0
LINE
8
Layer 1
10
-327.573093
20
185.150068
11
-332.625342
21
187.216859
0
LINE
8
Layer 1
10
-332.625342
20
187.216859
11
-337.505966
21
189.064247
0
LINE
8
Layer 1
10
-337.505966
20
189.064247
11
-340.821090
21
190.142963
0
LINE
8
Layer 1
10
-340.821090
20
190.142963
11
-344.579020
21
191.187863
0
LINE
8
Layer 1
10
-344.579020
20
191.187863
11
-347.774609
21
191.942403
0
LINE
8
Layer 1
10
-347.774609
20
191.942403
11
-354.875020
21
193.167073
0
LINE
8
Layer 1
10
-354.875020
20
193.167073
11
-357.222759
21
193.521139
0
LINE
8
Layer 1
10
-357.222759
20
193.521139
11
-359.535722
21
193.731264
0
LINE
8
Layer 1
10
-359.535722
20
193.731264
11
-368.395120
21
193.980973
0
LINE
8
Layer 1
10
-368.395120
20
193.980973
11
-376.397660
21
193.990264
0
LINE
8
Layer 1
10
-376.397660
20
193.990264
11
-379.231815
21
193.813763
0
LINE
8
Layer 1
10
-379.231815
20
193.813763
11
-382.093020
21
193.487463
0
LINE
8
Layer 1
10
-382.093020
20
193.487463
11
-382.093550
21
193.487463
0
LINE
8
Layer 1
10
-382.093550
20
193.487463
11
-387.149597
21
192.748642
0
LINE
8
Layer 1
10
-387.149597
20
192.748642
11
-391.460678
21
191.935932
0
LINE
8
Layer 1
10
-391.460678
20
191.935932
11
-395.713495
21
190.901115
0
LINE
8
Layer 1
10
-395.713495
20
190.901115
11
-400.594750
21
189.495973
0
LINE
8
Layer 1
10
-400.594750
20
189.495973
11
-404.433118
21
188.204487
0
LINE
8
Layer 1
10
-404.433118
20
188.204487
11
-409.021158
21
186.497339
0
LINE
8
Layer 1
10
-409.021158
20
186.497339
11
-413.042793
21
184.882361
0
LINE
8
Layer 1
10
-413.042793
20
184.882361
11
-415.181950
21
183.867383
0
LINE
8
Layer 1
10
-415.181950
20
183.867383
11
-419.095900
21
181.735203
0
LINE
8
Layer 1
10
-419.095900
20
181.735203
11
-422.695113
21
179.663403
0
LINE
8
Layer 1
10
-422.695113
20
179.663403
11
-427.111334
21
176.905993
0
LINE
8
Layer 1
10
-427.111334
20
176.905993
11
-431.134988
21
174.240203
0
LINE
8
Layer 1
10
-431.134988
20
174.240203
11
-433.556500
21
172.443263
0
LINE
8
Layer 1
10
-433.556500
20
172.443263
11
-436.028710
21
170.345203
0
LINE
8
Layer 1
10
-436.028710
20
170.345203
11
-439.603597
21
167.209572
0
LINE
8
Layer 1
10
-439.603597
20
167.209572
11
-443.489729
21
163.410964
0
LINE
8
Layer 1
10
-443.489729
20
163.410964
11
-447.344726
21
159.299226
0
LINE
8
Layer 1
10
-447.344726
20
159.299226
11
-450.826210
21
155.224203
0
LINE
8
Layer 1
10
-450.826210
20
155.224203
11
-455.683927
21
148.745694
0
LINE
8
Layer 1
10
-455.683927
20
148.745694
11
-457.625215
21
145.922747
0
LINE
8
Layer 1
10
-457.625215
20
145.922747
11
-458.410760
21
144.546803
0
LINE
8
Layer 1
10
-458.410760
20
144.546803
11
-459.372990
21
142.853363
0
LINE
8
Layer 1
10
-459.372990
20
142.853363
11
-461.026454
21
140.043322
0
LINE
8
Layer 1
10
-461.026454
20
140.043322
11
-462.720361
21
136.755488
0
LINE
8
Layer 1
10
-462.720361
20
136.755488
11
-466.025401
21
129.256102
0
LINE
8
Layer 1
10
-466.025401
20
129.256102
11
-468.879911
21
121.374521
0
LINE
8
Layer 1
10
-468.879911
20
121.374521
11
-470.010654
21
117.608945
0
LINE
8
Layer 1
10
-470.010654
20
117.608945
11
-470.875690
21
114.130063
0
LINE
8
Layer 1
10
-470.875690
20
114.130063
11
-472.065556
21
107.775281
0
LINE
8
Layer 1
10
-472.065556
20
107.775281
11
-472.886802
21
101.388488
0
LINE
8
Layer 1
10
-472.886802
20
101.388488
11
-473.339916
21
95.000851
0
LINE
8
Layer 1
10
-473.339916
20
95.000851
11
-473.425385
21
88.643538
0
LINE
8
Layer 1
10
-473.425385
20
88.643538
11
-473.143695
21
82.347715
0
LINE
8
Layer 1
10
-473.143695
20
82.347715
11
-472.495333
21
76.144551
0
LINE
8
Layer 1
10
-472.495333
20
76.144551
11
-471.480786
21
70.065211
0
LINE
8
Layer 1
10
-471.480786
20
70.065211
11
-470.100540
21
64.140863
0
LINE
8
Layer 1
10
-470.100540
20
64.140863
11
-468.685080
21
59.262341
0
LINE
8
Layer 1
10
-468.685080
20
59.262341
11
-467.104127
21
54.657418
0
LINE
8
Layer 1
10
-467.104127
20
54.657418
11
-465.247456
21
50.030168
0
LINE
8
Layer 1
10
-465.247456
20
50.030168
11
-463.004840
21
45.084663
0
LINE
8
Layer 1
10
-463.004840
20
45.084663
11
-460.881450
21
40.615683
0
LINE
8
Layer 1
10
-460.881450
20
40.615683
11
-461.450940
21
39.252463
0
LINE
8
Layer 1
10
-461.450940
20
39.252463
11
-461.750684
21
38.207822
0
LINE
8
Layer 1
10
-461.750684
20
38.207822
11
-461.811717
21
37.225697
0
LINE
8
Layer 1
10
-461.811717
20
37.225697
11
-461.645722
21
36.496664
0
LINE
8
Layer 1
10
-461.645722
20
36.496664
11
-461.264380
21
36.211303
0
LINE
8
Layer 1
10
-461.264380
20
36.211303
11
-460.729215
21
35.957931
0
LINE
8
Layer 1
10
-460.729215
20
35.957931
11
-460.143755
21
35.340953
0
LINE
8
Layer 1
10
-460.143755
20
35.340953
11
-459.672123
21
34.575078
0
LINE
8
Layer 1
10
-459.672123
20
34.575078
11
-459.478440
21
33.875013
0
LINE
8
Layer 1
10
-459.478440
20
33.875013
11
-459.644816
21
32.926546
0
LINE
8
Layer 1
10
-459.644816
20
32.926546
11
-460.044810
21
31.740263
0
LINE
8
Layer 1
10
-460.044810
20
31.740263
11
-460.375434
21
30.540697
0
LINE
8
Layer 1
10
-460.375434
20
30.540697
11
-460.439108
21
29.238576
0
LINE
8
Layer 1
10
-460.439108
20
29.238576
11
-460.258465
21
27.892323
0
LINE
8
Layer 1
10
-460.258465
20
27.892323
11
-459.856143
21
26.560363
0
LINE
8
Layer 1
10
-459.856143
20
26.560363
11
-459.254774
21
25.301119
0
LINE
8
Layer 1
10
-459.254774
20
25.301119
11
-458.476996
21
24.173015
0
LINE
8
Layer 1
10
-458.476996
20
24.173015
11
-457.545443
21
23.234475
0
LINE
8
Layer 1
10
-457.545443
20
23.234475
11
-456.482750
21
22.543923
0
LINE
8
Layer 1
10
-456.482750
20
22.543923
11
-454.688171
21
21.869761
0
LINE
8
Layer 1
10
-454.688171
20
21.869761
11
-452.961308
21
21.666462
0
LINE
8
Layer 1
10
-452.961308
20
21.666462
11
-451.201350
21
21.935870
0
LINE
8
Layer 1
10
-451.201350
20
21.935870
11
-449.307490
21
22.679831
0
LINE
8
Layer 1
10
-449.307490
20
22.679831
11
-446.870940
21
23.704061
0
LINE
8
Layer 1
10
-446.870940
20
23.704061
11
-444.170840
21
19.488811
0
LINE
8
Layer 1
10
-444.170840
20
19.488811
11
-435.811150
21
6.324711
0
LINE
8
Layer 1
10
-435.811150
20
6.324711
11
-430.633700
21
-1.858769
0
LINE
8
Layer 1
10
-430.633700
20
-1.858769
11
-421.871440
21
-15.671869
0
LINE
8
Layer 1
10
-421.871440
20
-15.671869
11
-416.989560
21
-23.506529
0
LINE
8
Layer 1
10
-416.989560
20
-23.506529
11
-416.713044
21
-24.168880
0
LINE
8
Layer 1
10
-416.713044
20
-24.168880
11
-416.677201
21
-25.021647
0
LINE
8
Layer 1
10
-416.677201
20
-25.021647
11
-417.509950
21
-29.349069
0
LINE
8
Layer 1
10
-417.509950
20
-29.349069
11
-417.770049
21
-30.830482
0
LINE
8
Layer 1
10
-417.770049
20
-30.830482
11
-417.647035
21
-31.429858
0
LINE
8
Layer 1
10
-417.647035
20
-31.429858
11
-417.229342
21
-32.088425
0
LINE
8
Layer 1
10
-417.229342
20
-32.088425
11
-415.132015
21
-34.043361
0
LINE
8
Layer 1
10
-415.132015
20
-34.043361
11
-410.722250
21
-37.615749
0
LINE
8
Layer 1
10
-410.722250
20
-37.615749
11
-404.342800
21
-42.937909
0
LINE
8
Layer 1
10
-404.342800
20
-42.937909
11
-403.913289
21
-43.312074
0
LINE
8
Layer 1
10
-403.913289
20
-43.312074
11
-403.391940
21
-43.435553
0
LINE
8
Layer 1
10
-403.391940
20
-43.435553
11
-403.392000
21
-43.435500
0
LINE
8
Layer 1
10
-402.792560
20
-36.726350
11
-403.353310
21
-36.415377
0
LINE
8
Layer 1
10
-403.353310
20
-36.415377
11
-404.263770
21
-35.667500
0
LINE
8
Layer 1
10
-404.263770
20
-35.667500
11
-406.742710
21
-33.621630
0
LINE
8
Layer 1
10
-406.742710
20
-33.621630
11
-409.131180
21
-31.688930
0
LINE
8
Layer 1
10
-409.131180
20
-31.688930
11
-411.038060
21
-30.072490
0
LINE
8
Layer 1
10
-411.038060
20
-30.072490
11
-411.484992
21
-29.667250
0
LINE
8
Layer 1
10
-411.484992
20
-29.667250
11
-411.686480
21
-29.275900
0
LINE
8
Layer 1
10
-411.686480
20
-29.275900
11
-411.674855
21
-28.741145
0
LINE
8
Layer 1
10
-411.674855
20
-28.741145
11
-411.482450
21
-27.905690
0
LINE
8
Layer 1
10
-411.482450
20
-27.905690
11
-410.795857
21
-25.257135
0
LINE
8
Layer 1
10
-410.795857
20
-25.257135
11
-410.547349
21
-23.843325
0
LINE
8
Layer 1
10
-410.547349
20
-23.843325
11
-410.712006
21
-22.996575
0
LINE
8
Layer 1
10
-410.712006
20
-22.996575
11
-411.264910
21
-22.049200
0
LINE
8
Layer 1
10
-411.264910
20
-22.049200
11
-414.356200
21
-17.158030
0
LINE
8
Layer 1
10
-414.356200
20
-17.158030
11
-420.810070
21
-7.017530
0
LINE
8
Layer 1
10
-420.810070
20
-7.017530
11
-426.787990
21
2.410840
0
LINE
8
Layer 1
10
-426.787990
20
2.410840
11
-429.701000
21
7.036400
0
LINE
8
Layer 1
10
-429.701000
20
7.036400
11
-440.336000
21
23.826600
0
LINE
8
Layer 1
10
-440.336000
20
23.826600
11
-442.165850
21
26.826940
0
LINE
8
Layer 1
10
-442.165850
20
26.826940
11
-441.734058
21
27.265601
0
LINE
8
Layer 1
10
-441.734058
20
27.265601
11
-440.700488
21
28.009593
0
LINE
8
Layer 1
10
-440.700488
20
28.009593
11
-438.842530
21
29.059880
0
LINE
8
Layer 1
10
-438.842530
20
29.059880
11
-434.928570
21
23.211140
0
LINE
8
Layer 1
10
-434.928570
20
23.211140
11
-429.920090
21
15.302580
0
LINE
8
Layer 1
10
-429.920090
20
15.302580
11
-415.905207
21
-6.871707
0
LINE
8
Layer 1
10
-415.905207
20
-6.871707
11
-406.973690
21
-20.701420
0
LINE
8
Layer 1
10
-406.973690
20
-20.701420
11
-405.764316
21
-21.281536
0
LINE
8
Layer 1
10
-405.764316
20
-21.281536
11
-403.566150
21
-21.946820
0
LINE
8
Layer 1
10
-403.566150
20
-21.946820
11
-400.663480
21
-22.672358
0
LINE
8
Layer 1
10
-400.663480
20
-22.672358
11
-399.308520
21
-28.154708
0
LINE
8
Layer 1
10
-399.308520
20
-28.154708
11
-398.395062
21
-32.096724
0
LINE
8
Layer 1
10
-398.395062
20
-32.096724
11
-398.101360
21
-33.875808
0
LINE
8
Layer 1
10
-398.101360
20
-33.875808
11
-400.392697
21
-35.433557
0
LINE
8
Layer 1
10
-400.392697
20
-35.433557
11
-402.792560
21
-36.726278
0
LINE
8
Layer 1
10
-402.792560
20
-36.726278
11
-402.792560
21
-36.726350
0
LINE
8
Layer 1
10
-313.170660
20
-10.762050
11
-314.206802
21
-10.560570
0
LINE
8
Layer 1
10
-314.206802
20
-10.560570
11
-315.485240
21
-9.990522
0
LINE
8
Layer 1
10
-315.485240
20
-9.990522
11
-317.918674
21
-8.448917
0
LINE
8
Layer 1
10
-317.918674
20
-8.448917
11
-320.951466
21
-6.190077
0
LINE
8
Layer 1
10
-320.951466
20
-6.190077
11
-323.537958
21
-4.035315
0
LINE
8
Layer 1
10
-323.537958
20
-4.035315
11
-324.337072
21
-3.253623
0
LINE
8
Layer 1
10
-324.337072
20
-3.253623
11
-324.632490
21
-2.805942
0
LINE
8
Layer 1
10
-324.632490
20
-2.805942
11
-324.319077
21
-2.223084
0
LINE
8
Layer 1
10
-324.319077
20
-2.223084
11
-323.565370
21
-1.270632
0
LINE
8
Layer 1
10
-323.565370
20
-1.270632
11
-322.725656
21
-0.090612
0
LINE
8
Layer 1
10
-322.725656
20
-0.090612
11
-322.560441
21
0.425827
0
LINE
8
Layer 1
10
-322.560441
20
0.425827
11
-322.572113
21
0.928427
0
LINE
8
Layer 1
10
-322.572113
20
0.928427
11
-323.147483
21
1.997736
0
LINE
8
Layer 1
10
-323.147483
20
1.997736
11
-324.494510
21
3.328568
0
LINE
8
Layer 1
10
-324.494510
20
3.328568
11
-327.382700
21
5.557368
0
LINE
8
Layer 1
10
-327.382700
20
5.557368
11
-327.910106
21
5.785485
0
LINE
8
Layer 1
10
-327.910106
20
5.785485
11
-328.360163
21
5.750265
0
LINE
8
Layer 1
10
-328.360163
20
5.750265
11
-328.911893
21
5.379077
0
LINE
8
Layer 1
10
-328.911893
20
5.379077
11
-329.744320
21
4.599288
0
LINE
8
Layer 1
10
-329.744320
20
4.599288
11
-330.793388
21
3.681159
0
LINE
8
Layer 1
10
-330.793388
20
3.681159
11
-331.221243
21
3.486305
0
LINE
8
Layer 1
10
-331.221243
20
3.486305
11
-331.652085
21
3.481721
0
LINE
8
Layer 1
10
-331.652085
20
3.481721
11
-332.725050
21
4.085754
0
LINE
8
Layer 1
10
-332.725050
20
4.085754
11
-334.416920
21
5.578040
0
LINE
8
Layer 1
10
-334.416920
20
5.578040
11
-337.272601
21
8.425544
0
LINE
8
Layer 1
10
-337.272601
20
8.425544
11
-339.378769
21
10.984573
0
LINE
8
Layer 1
10
-339.378769
20
10.984573
11
-340.604945
21
13.073144
0
LINE
8
Layer 1
10
-340.604945
20
13.073144
11
-340.847261
21
13.884140
0
LINE
8
Layer 1
10
-340.847261
20
13.884140
11
-340.820650
21
14.509280
0
LINE
8
Layer 1
10
-340.820650
20
14.509280
11
-340.006208
21
15.743789
0
LINE
8
Layer 1
10
-340.006208
20
15.743789
11
-338.371620
21
17.824040
0
LINE
8
Layer 1
10
-338.371620
20
17.824040
11
-336.636952
21
19.868515
0
LINE
8
Layer 1
10
-336.636952
20
19.868515
11
-335.522270
21
20.995700
0
LINE
8
Layer 1
10
-335.522270
20
20.995700
11
-334.830184
21
21.241535
0
LINE
8
Layer 1
10
-334.830184
20
21.241535
11
-334.026181
21
21.098923
0
LINE
8
Layer 1
10
-334.026181
20
21.098923
11
-333.059168
21
20.547874
0
LINE
8
Layer 1
10
-333.059168
20
20.547874
11
-331.878050
21
19.568400
0
LINE
8
Layer 1
10
-331.878050
20
19.568400
11
-324.969410
21
13.440610
0
LINE
8
Layer 1
10
-324.969410
20
13.440610
11
-314.872410
21
4.545550
0
LINE
8
Layer 1
10
-314.872410
20
4.545550
11
-308.185990
21
-1.267530
0
LINE
8
Layer 1
10
-308.185990
20
-1.267530
11
-306.655193
21
-2.692013
0
LINE
8
Layer 1
10
-306.655193
20
-2.692013
11
-306.321033
21
-3.303695
0
LINE
8
Layer 1
10
-306.321033
20
-3.303695
11
-306.292213
21
-3.942256
0
LINE
8
Layer 1
10
-306.292213
20
-3.942256
11
-306.582119
21
-4.678136
0
LINE
8
Layer 1
10
-306.582119
20
-4.678136
11
-307.204138
21
-5.581774
0
LINE
8
Layer 1
10
-307.204138
20
-5.581774
11
-309.498060
21
-8.174080
0
LINE
8
Layer 1
10
-309.498060
20
-8.174080
11
-311.565981
21
-10.152337
0
LINE
8
Layer 1
10
-311.565981
20
-10.152337
11
-312.381839
21
-10.614784
0
LINE
8
Layer 1
10
-312.381839
20
-10.614784
11
-313.170710
21
-10.762040
0
LINE
8
Layer 1
10
-313.170710
20
-10.762040
11
-313.170660
21
-10.762050
0
LINE
8
Layer 1
10
-311.900450
20
8.264150
11
-313.634257
21
9.614442
0
LINE
8
Layer 1
10
-313.634257
20
9.614442
11
-317.268415
21
12.791543
0
LINE
8
Layer 1
10
-317.268415
20
12.791543
11
-320.867915
21
16.068886
0
LINE
8
Layer 1
10
-320.867915
20
16.068886
11
-322.497750
21
17.719900
0
LINE
8
Layer 1
10
-322.497750
20
17.719900
11
-322.087319
21
18.433543
0
LINE
8
Layer 1
10
-322.087319
20
18.433543
11
-321.157762
21
19.620065
0
LINE
8
Layer 1
10
-321.157762
20
19.620065
11
-320.161685
21
20.737846
0
LINE
8
Layer 1
10
-320.161685
20
20.737846
11
-319.551690
21
21.245270
0
LINE
8
Layer 1
10
-319.551690
20
21.245270
11
-319.288490
21
21.078245
0
LINE
8
Layer 1
10
-319.288490
20
21.078245
11
-319.046290
21
20.645309
0
LINE
8
Layer 1
10
-319.046290
20
20.645309
11
-318.008870
21
18.710958
0
LINE
8
Layer 1
10
-318.008870
20
18.710958
11
-316.181850
21
15.732429
0
LINE
8
Layer 1
10
-316.181850
20
15.732429
11
-315.397420
21
14.260169
0
LINE
8
Layer 1
10
-315.397420
20
14.260169
11
-313.885880
21
11.753869
0
LINE
8
Layer 1
10
-313.885880
20
11.753869
11
-312.266576
21
9.232426
0
LINE
8
Layer 1
10
-312.266576
20
9.232426
11
-311.931565
21
8.562354
0
LINE
8
Layer 1
10
-311.931565
20
8.562354
11
-311.900470
21
8.264159
0
LINE
8
Layer 1
10
-311.900470
20
8.264159
11
-311.900450
21
8.264150
0
LINE
8
Layer 1
10
-306.758640
20
9.504380
11
-307.257264
21
9.793529
0
LINE
8
Layer 1
10
-307.257264
20
9.793529
11
-307.838170
21
10.618520
0
LINE
8
Layer 1
10
-307.838170
20
10.618520
11
-309.564150
21
13.441090
0
LINE
8
Layer 1
10
-309.564150
20
13.441090
11
-311.521140
21
16.695160
0
LINE
8
Layer 1
10
-311.521140
20
16.695160
11
-313.514300
21
20.001930
0
LINE
8
Layer 1
10
-313.514300
20
20.001930
11
-314.670290
21
22.044700
0
LINE
8
Layer 1
10
-314.670290
20
22.044700
11
-315.550350
21
23.600680
0
LINE
8
Layer 1
10
-315.550350
20
23.600680
11
-316.366863
21
25.287475
0
LINE
8
Layer 1
10
-316.366863
20
25.287475
11
-316.739194
21
27.000725
0
LINE
8
Layer 1
10
-316.739194
20
27.000725
11
-316.624465
21
28.247985
0
LINE
8
Layer 1
10
-316.624465
20
28.247985
11
-316.371054
21
28.542979
0
LINE
8
Layer 1
10
-316.371054
20
28.542979
11
-315.979800
21
28.536810
0
LINE
8
Layer 1
10
-315.979800
20
28.536810
11
-314.290926
21
26.124686
0
LINE
8
Layer 1
10
-314.290926
20
26.124686
11
-310.839020
21
20.559000
0
LINE
8
Layer 1
10
-310.839020
20
20.559000
11
-306.911745
21
13.775659
0
LINE
8
Layer 1
10
-306.911745
20
13.775659
11
-306.276844
21
12.236038
0
LINE
8
Layer 1
10
-306.276844
20
12.236038
11
-306.131290
21
11.137350
0
LINE
8
Layer 1
10
-306.131290
20
11.137350
11
-306.302191
21
9.900684
0
LINE
8
Layer 1
10
-306.302191
20
9.900684
11
-306.499996
21
9.595865
0
LINE
8
Layer 1
10
-306.499996
20
9.595865
11
-306.758640
21
9.504370
0
LINE
8
Layer 1
10
-306.758640
20
9.504370
11
-306.758640
21
9.504380
0
LINE
8
Layer 1
10
-303.127340
20
17.240340
11
-303.482574
21
17.451148
0
LINE
8
Layer 1
10
-303.482574
20
17.451148
11
-303.968180
21
18.069021
0
LINE
8
Layer 1
10
-303.968180
20
18.069021
11
-305.699780
21
20.911950
0
LINE
8
Layer 1
10
-305.699780
20
20.911950
11
-308.773500
21
26.112150
0
LINE
8
Layer 1
10
-308.773500
20
26.112150
11
-311.112390
21
30.306730
0
LINE
8
Layer 1
10
-311.112390
20
30.306730
11
-310.323406
21
31.608173
0
LINE
8
Layer 1
10
-310.323406
20
31.608173
11
-309.340930
21
32.653360
0
LINE
8
Layer 1
10
-309.340930
20
32.653360
11
-306.828420
21
28.714580
0
LINE
8
Layer 1
10
-306.828420
20
28.714580
11
-303.675640
21
23.289070
0
LINE
8
Layer 1
10
-303.675640
20
23.289070
11
-302.003370
21
20.588460
0
LINE
8
Layer 1
10
-302.003370
20
20.588460
11
-301.531619
21
19.736360
0
LINE
8
Layer 1
10
-301.531619
20
19.736360
11
-301.444569
21
19.039892
0
LINE
8
Layer 1
10
-301.444569
20
19.039892
11
-301.764691
21
18.366979
0
LINE
8
Layer 1
10
-301.764691
20
18.366979
11
-302.514460
21
17.585540
0
LINE
8
Layer 1
10
-302.514460
20
17.585540
11
-302.839894
21
17.320800
0
LINE
8
Layer 1
10
-302.839894
20
17.320800
11
-303.127340
21
17.240341
0
LINE
8
Layer 1
10
-303.127340
20
17.240341
11
-303.127340
21
17.240340
0
LINE
8
Layer 1
10
-296.351520
20
21.268000
11
-296.878492
21
21.630990
0
LINE
8
Layer 1
10
-296.878492
20
21.630990
11
-297.714917
21
22.628241
0
LINE
8
Layer 1
10
-297.714917
20
22.628241
11
-299.901170
21
25.975210
0
LINE
8
Layer 1
10
-299.901170
20
25.975210
11
-303.373830
21
31.888030
0
LINE
8
Layer 1
10
-303.373830
20
31.888030
11
-305.889246
21
36.450181
0
LINE
8
Layer 1
10
-305.889246
20
36.450181
11
-306.360352
21
37.700254
0
LINE
8
Layer 1
10
-306.360352
20
37.700254
11
-306.487340
21
38.655060
0
LINE
8
Layer 1
10
-306.487340
20
38.655060
11
-306.364761
21
39.721196
0
LINE
8
Layer 1
10
-306.364761
20
39.721196
11
-306.213854
21
39.996463
0
LINE
8
Layer 1
10
-306.213854
20
39.996463
11
-306.005262
21
40.099718
0
LINE
8
Layer 1
10
-306.005262
20
40.099718
11
-305.421203
21
39.789758
0
LINE
8
Layer 1
10
-305.421203
20
39.789758
11
-304.624940
21
38.790452
0
LINE
8
Layer 1
10
-304.624940
20
38.790452
11
-300.378055
21
31.797487
0
LINE
8
Layer 1
10
-300.378055
20
31.797487
11
-296.395440
21
24.932352
0
LINE
8
Layer 1
10
-296.395440
20
24.932352
11
-295.965770
21
23.735747
0
LINE
8
Layer 1
10
-295.965770
20
23.735747
11
-295.813049
21
22.545455
0
LINE
8
Layer 1
10
-295.813049
20
22.545455
11
-295.940548
21
21.632516
0
LINE
8
Layer 1
10
-295.940548
20
21.632516
11
-296.110403
21
21.364755
0
LINE
8
Layer 1
10
-296.110403
20
21.364755
11
-296.351540
21
21.267972
0
LINE
8
Layer 1
10
-296.351540
20
21.267972
11
-296.351520
21
21.268000
0
LINE
8
Layer 1
10
-452.776520
20
27.316210
11
-453.533930
21
27.485470
0
LINE
8
Layer 1
10
-453.533930
20
27.485470
11
-454.199754
21
27.930092
0
LINE
8
Layer 1
10
-454.199754
20
27.930092
11
-454.673179
21
28.555340
0
LINE
8
Layer 1
10
-454.673179
20
28.555340
11
-454.853390
21
29.266480
0
LINE
8
Layer 1
10
-454.853390
20
29.266480
11
-454.633426
21
30.040268
0
LINE
8
Layer 1
10
-454.633426
20
30.040268
11
-453.718316
21
30.980856
0
LINE
8
Layer 1
10
-453.718316
20
30.980856
11
-451.725233
21
32.398799
0
LINE
8
Layer 1
10
-451.725233
20
32.398799
11
-448.271350
21
34.604650
0
LINE
8
Layer 1
10
-448.271350
20
34.604650
11
-441.867090
21
38.642650
0
LINE
8
Layer 1
10
-441.867090
20
38.642650
11
-436.478790
21
41.903950
0
LINE
8
Layer 1
10
-436.478790
20
41.903950
11
-435.506770
21
41.503458
0
LINE
8
Layer 1
10
-435.506770
20
41.503458
11
-434.819419
21
40.954861
0
LINE
8
Layer 1
10
-434.819419
20
40.954861
11
-434.400890
21
40.198108
0
LINE
8
Layer 1
10
-434.400890
20
40.198108
11
-434.351883
21
39.743861
0
LINE
8
Layer 1
10
-434.351883
20
39.743861
11
-434.468467
21
39.286006
0
LINE
8
Layer 1
10
-434.468467
20
39.286006
11
-435.377702
21
38.201773
0
LINE
8
Layer 1
10
-435.377702
20
38.201773
11
-437.487190
21
36.630010
0
LINE
8
Layer 1
10
-437.487190
20
36.630010
11
-441.155520
21
34.255318
0
LINE
8
Layer 1
10
-441.155520
20
34.255318
11
-449.068730
21
29.214798
0
LINE
8
Layer 1
10
-449.068730
20
29.214798
11
-451.367322
21
27.873954
0
LINE
8
Layer 1
10
-451.367322
20
27.873954
11
-452.776520
21
27.316208
0
LINE
8
Layer 1
10
-452.776520
20
27.316208
11
-452.776520
21
27.316210
0
LINE
8
Layer 1
10
-293.034520
20
28.859780
11
-293.490820
21
29.086639
0
LINE
8
Layer 1
10
-293.490820
20
29.086639
11
-294.034970
21
29.821996
0
LINE
8
Layer 1
10
-294.034970
20
29.821996
11
-295.991960
21
33.302406
0
LINE
8
Layer 1
10
-295.991960
20
33.302406
11
-297.948950
21
36.747676
0
LINE
8
Layer 1
10
-297.948950
20
36.747676
11
-297.566532
21
36.587642
0
LINE
8
Layer 1
10
-297.566532
20
36.587642
11
-296.647220
21
35.853672
0
LINE
8
Layer 1
10
-296.647220
20
35.853672
11
-294.857130
21
34.304932
0
LINE
8
Layer 1
10
-294.857130
20
34.304932
11
-292.555420
21
32.129076
0
LINE
8
Layer 1
10
-292.555420
20
32.129076
11
-291.188630
21
30.552192
0
LINE
8
Layer 1
10
-291.188630
20
30.552192
11
-292.067660
21
29.460782
0
LINE
8
Layer 1
10
-292.067660
20
29.460782
11
-292.629979
21
28.995008
0
LINE
8
Layer 1
10
-292.629979
20
28.995008
11
-293.034520
21
28.859786
0
LINE
8
Layer 1
10
-293.034520
20
28.859786
11
-293.034520
21
28.859780
0
LINE
8
Layer 1
10
-288.684400
20
35.151900
11
-291.722450
21
37.262880
0
LINE
8
Layer 1
10
-291.722450
20
37.262880
11
-295.753200
21
40.189830
0
LINE
8
Layer 1
10
-295.753200
20
40.189830
11
-297.826470
21
41.731340
0
LINE
8
Layer 1
10
-297.826470
20
41.731340
11
-298.715820
21
42.448607
0
LINE
8
Layer 1
10
-298.715820
20
42.448607
11
-298.017660
21
43.336409
0
LINE
8
Layer 1
10
-298.017660
20
43.336409
11
-296.212781
21
46.193242
0
LINE
8
Layer 1
10
-296.212781
20
46.193242
11
-293.826326
21
50.643047
0
LINE
8
Layer 1
10
-293.826326
20
50.643047
11
-291.448716
21
55.528807
0
LINE
8
Layer 1
10
-291.448716
20
55.528807
11
-289.670370
21
59.693509
0
LINE
8
Layer 1
10
-289.670370
20
59.693509
11
-287.830364
21
64.960306
0
LINE
8
Layer 1
10
-287.830364
20
64.960306
11
-286.421671
21
69.858023
0
LINE
8
Layer 1
10
-286.421671
20
69.858023
11
-285.373063
21
74.668408
0
LINE
8
Layer 1
10
-285.373063
20
74.668408
11
-284.613310
21
79.673209
0
LINE
8
Layer 1
10
-284.613310
20
79.673209
11
-284.194328
21
83.898418
0
LINE
8
Layer 1
10
-284.194328
20
83.898418
11
-283.977627
21
88.106233
0
LINE
8
Layer 1
10
-283.977627
20
88.106233
11
-283.961949
21
92.291967
0
LINE
8
Layer 1
10
-283.961949
20
92.291967
11
-284.146039
21
96.450936
0
LINE
8
Layer 1
10
-284.146039
20
96.450936
11
-284.528639
21
100.578451
0
LINE
8
Layer 1
10
-284.528639
20
100.578451
11
-285.108493
21
104.669828
0
LINE
8
Layer 1
10
-285.108493
20
104.669828
11
-285.884344
21
108.720380
0
LINE
8
Layer 1
10
-285.884344
20
108.720380
11
-286.854935
21
112.725422
0
LINE
8
Layer 1
10
-286.854935
20
112.725422
11
-288.019010
21
116.680265
0
LINE
8
Layer 1
10
-288.019010
20
116.680265
11
-289.375312
21
120.580226
0
LINE
8
Layer 1
10
-289.375312
20
120.580226
11
-290.922583
21
124.420616
0
LINE
8
Layer 1
10
-290.922583
20
124.420616
11
-292.659569
21
128.196751
0
LINE
8
Layer 1
10
-292.659569
20
128.196751
11
-294.585011
21
131.903944
0
LINE
8
Layer 1
10
-294.585011
20
131.903944
11
-296.697653
21
135.537509
0
LINE
8
Layer 1
10
-296.697653
20
135.537509
11
-298.996238
21
139.092759
0
LINE
8
Layer 1
10
-298.996238
20
139.092759
11
-301.479510
21
142.565009
0
LINE
8
Layer 1
10
-301.479510
20
142.565009
11
-305.095911
21
146.946313
0
LINE
8
Layer 1
10
-305.095911
20
146.946313
11
-309.433352
21
151.558668
0
LINE
8
Layer 1
10
-309.433352
20
151.558668
11
-313.847898
21
155.754044
0
LINE
8
Layer 1
10
-313.847898
20
155.754044
11
-317.695610
21
158.884409
0
LINE
8
Layer 1
10
-317.695610
20
158.884409
11
-319.473270
21
160.205259
0
LINE
8
Layer 1
10
-319.473270
20
160.205259
11
-322.367310
21
162.263414
0
LINE
8
Layer 1
10
-322.367310
20
162.263414
11
-325.399860
21
164.170687
0
LINE
8
Layer 1
10
-325.399860
20
164.170687
11
-328.804965
21
166.065280
0
LINE
8
Layer 1
10
-328.804965
20
166.065280
11
-332.816670
21
168.085399
0
LINE
8
Layer 1
10
-332.816670
20
168.085399
11
-338.774832
21
170.723350
0
LINE
8
Layer 1
10
-338.774832
20
170.723350
11
-344.691172
21
172.790969
0
LINE
8
Layer 1
10
-344.691172
20
172.790969
11
-350.985637
21
174.415248
0
LINE
8
Layer 1
10
-350.985637
20
174.415248
11
-358.078170
21
175.723179
0
LINE
8
Layer 1
10
-358.078170
20
175.723179
11
-362.856002
21
176.314575
0
LINE
8
Layer 1
10
-362.856002
20
176.314575
11
-369.490370
21
176.423909
0
LINE
8
Layer 1
10
-369.490370
20
176.423909
11
-374.122372
21
176.328720
0
LINE
8
Layer 1
10
-374.122372
20
176.328720
11
-378.557016
21
176.036658
0
LINE
8
Layer 1
10
-378.557016
20
176.036658
11
-382.632112
21
175.562276
0
LINE
8
Layer 1
10
-382.632112
20
175.562276
11
-386.185470
21
174.920129
0
LINE
8
Layer 1
10
-386.185470
20
174.920129
11
-394.047961
21
172.905881
0
LINE
8
Layer 1
10
-394.047961
20
172.905881
11
-397.678291
21
171.758124
0
LINE
8
Layer 1
10
-397.678291
20
171.758124
11
-401.163020
21
170.495313
0
LINE
8
Layer 1
10
-401.163020
20
170.495313
11
-404.543406
21
169.101472
0
LINE
8
Layer 1
10
-404.543406
20
169.101472
11
-407.860704
21
167.560628
0
LINE
8
Layer 1
10
-407.860704
20
167.560628
11
-414.471070
21
163.974029
0
LINE
8
Layer 1
10
-414.471070
20
163.974029
11
-418.398552
21
161.448765
0
LINE
8
Layer 1
10
-418.398552
20
161.448765
11
-422.332978
21
158.538684
0
LINE
8
Layer 1
10
-422.332978
20
158.538684
11
-426.209628
21
155.307203
0
LINE
8
Layer 1
10
-426.209628
20
155.307203
11
-429.963782
21
151.817737
0
LINE
8
Layer 1
10
-429.963782
20
151.817737
11
-433.530723
21
148.133700
0
LINE
8
Layer 1
10
-433.530723
20
148.133700
11
-436.845731
21
144.318510
0
LINE
8
Layer 1
10
-436.845731
20
144.318510
11
-439.844086
21
140.435581
0
LINE
8
Layer 1
10
-439.844086
20
140.435581
11
-442.461070
21
136.548329
0
LINE
8
Layer 1
10
-442.461070
20
136.548329
11
-445.573035
21
131.351360
0
LINE
8
Layer 1
10
-445.573035
20
131.351360
11
-447.833360
21
126.582529
0
LINE
8
Layer 1
10
-447.833360
20
126.582529
11
-449.754097
21
122.014718
0
LINE
8
Layer 1
10
-449.754097
20
122.014718
11
-451.386145
21
117.557279
0
LINE
8
Layer 1
10
-451.386145
20
117.557279
11
-452.739140
21
113.165877
0
LINE
8
Layer 1
10
-452.739140
20
113.165877
11
-453.822720
21
108.796179
0
LINE
8
Layer 1
10
-453.822720
20
108.796179
11
-454.646520
21
104.403849
0
LINE
8
Layer 1
10
-454.646520
20
104.403849
11
-455.220177
21
99.944554
0
LINE
8
Layer 1
10
-455.220177
20
99.944554
11
-455.553329
21
95.373959
0
LINE
8
Layer 1
10
-455.553329
20
95.373959
11
-455.655610
21
90.647729
0
LINE
8
Layer 1
10
-455.655610
20
90.647729
11
-455.531583
21
85.868360
0
LINE
8
Layer 1
10
-455.531583
20
85.868360
11
-455.176302
21
81.222862
0
LINE
8
Layer 1
10
-455.176302
20
81.222862
11
-454.585045
21
76.689388
0
LINE
8
Layer 1
10
-454.585045
20
76.689388
11
-453.753087
21
72.246092
0
LINE
8
Layer 1
10
-453.753087
20
72.246092
11
-452.675707
21
67.871125
0
LINE
8
Layer 1
10
-452.675707
20
67.871125
11
-451.348179
21
63.542640
0
LINE
8
Layer 1
10
-451.348179
20
63.542640
11
-449.765781
21
59.238791
0
LINE
8
Layer 1
10
-449.765781
20
59.238791
11
-447.923790
21
54.937729
0
LINE
8
Layer 1
10
-447.923790
20
54.937729
11
-447.335182
21
53.382982
0
LINE
8
Layer 1
10
-447.335182
20
53.382982
11
-447.263370
21
52.576629
0
LINE
8
Layer 1
10
-447.263370
20
52.576629
11
-452.698179
21
49.577329
0
LINE
8
Layer 1
10
-452.698179
20
49.577329
11
-458.048770
21
46.884989
0
LINE
8
Layer 1
10
-458.048770
20
46.884989
11
-458.787456
21
48.052503
0
LINE
8
Layer 1
10
-458.787456
20
48.052503
11
-460.124827
21
51.003293
0
LINE
8
Layer 1
10
-460.124827
20
51.003293
11
-461.708330
21
54.909731
0
LINE
8
Layer 1
10
-461.708330
20
54.909731
11
-463.185410
21
58.944189
0
LINE
8
Layer 1
10
-463.185410
20
58.944189
11
-465.031818
21
64.971723
0
LINE
8
Layer 1
10
-465.031818
20
64.971723
11
-466.471583
21
71.063758
0
LINE
8
Layer 1
10
-466.471583
20
71.063758
11
-467.505362
21
77.229827
0
LINE
8
Layer 1
10
-467.505362
20
77.229827
11
-468.133810
21
83.479464
0
LINE
8
Layer 1
10
-468.133810
20
83.479464
11
-468.357584
21
89.822205
0
LINE
8
Layer 1
10
-468.357584
20
89.822205
11
-468.177342
21
96.267583
0
LINE
8
Layer 1
10
-468.177342
20
96.267583
11
-467.593738
21
102.825133
0
LINE
8
Layer 1
10
-467.593738
20
102.825133
11
-466.607430
21
109.504389
0
LINE
8
Layer 1
10
-466.607430
20
109.504389
11
-465.878596
21
112.833749
0
LINE
8
Layer 1
10
-465.878596
20
112.833749
11
-464.745132
21
117.035025
0
LINE
8
Layer 1
10
-464.745132
20
117.035025
11
-463.338501
21
121.651609
0
LINE
8
Layer 1
10
-463.338501
20
121.651609
11
-461.790160
21
126.226889
0
LINE
8
Layer 1
10
-461.790160
20
126.226889
11
-458.846726
21
132.788372
0
LINE
8
Layer 1
10
-458.846726
20
132.788372
11
-455.085650
21
140.109289
0
LINE
8
Layer 1
10
-455.085650
20
140.109289
11
-452.091090
21
144.864013
0
LINE
8
Layer 1
10
-452.091090
20
144.864013
11
-449.263780
21
148.995569
0
LINE
8
Layer 1
10
-449.263780
20
148.995569
11
-444.592340
21
154.649734
0
LINE
8
Layer 1
10
-444.592340
20
154.649734
11
-440.564447
21
159.127258
0
LINE
8
Layer 1
10
-440.564447
20
159.127258
11
-436.666196
21
162.967362
0
LINE
8
Layer 1
10
-436.666196
20
162.967362
11
-432.383680
21
166.709269
0
LINE
8
Layer 1
10
-432.383680
20
166.709269
11
-427.296853
21
170.607217
0
LINE
8
Layer 1
10
-427.296853
20
170.607217
11
-421.626334
21
174.379000
0
LINE
8
Layer 1
10
-421.626334
20
174.379000
11
-415.877963
21
177.710018
0
LINE
8
Layer 1
10
-415.877963
20
177.710018
11
-410.557580
21
180.285669
0
LINE
8
Layer 1
10
-410.557580
20
180.285669
11
-405.932030
21
182.276759
0
LINE
8
Layer 1
10
-405.932030
20
182.276759
11
-403.055549
21
183.343184
0
LINE
8
Layer 1
10
-403.055549
20
183.343184
11
-398.937425
21
184.633773
0
LINE
8
Layer 1
10
-398.937425
20
184.633773
11
-394.402878
21
185.904312
0
LINE
8
Layer 1
10
-394.402878
20
185.904312
11
-390.277130
21
186.910589
0
LINE
8
Layer 1
10
-390.277130
20
186.910589
11
-386.931791
21
187.545737
0
LINE
8
Layer 1
10
-386.931791
20
187.545737
11
-383.269472
21
188.076223
0
LINE
8
Layer 1
10
-383.269472
20
188.076223
11
-375.404729
21
188.798410
0
LINE
8
Layer 1
10
-375.404729
20
188.798410
11
-367.504561
21
189.027565
0
LINE
8
Layer 1
10
-367.504561
20
189.027565
11
-363.797962
21
188.941759
0
LINE
8
Layer 1
10
-363.797962
20
188.941759
11
-360.390630
21
188.714099
0
LINE
8
Layer 1
10
-360.390630
20
188.714099
11
-356.121130
21
188.127569
0
LINE
8
Layer 1
10
-356.121130
20
188.127569
11
-350.250690
21
187.042879
0
LINE
8
Layer 1
10
-350.250690
20
187.042879
11
-346.545381
21
186.272303
0
LINE
8
Layer 1
10
-346.545381
20
186.272303
11
-343.382870
21
185.445049
0
LINE
8
Layer 1
10
-343.382870
20
185.445049
11
-340.045600
21
184.576879
0
LINE
8
Layer 1
10
-340.045600
20
184.576879
11
-337.857375
21
183.891090
0
LINE
8
Layer 1
10
-337.857375
20
183.891090
11
-333.770122
21
182.307653
0
LINE
8
Layer 1
10
-333.770122
20
182.307653
11
-329.545758
21
180.537464
0
LINE
8
Layer 1
10
-329.545758
20
180.537464
11
-326.946200
21
179.291419
0
LINE
8
Layer 1
10
-326.946200
20
179.291419
11
-323.209990
21
177.355619
0
LINE
8
Layer 1
10
-323.209990
20
177.355619
11
-321.299361
21
176.392274
0
LINE
8
Layer 1
10
-321.299361
20
176.392274
11
-319.953340
21
175.549529
0
LINE
8
Layer 1
10
-319.953340
20
175.549529
11
-317.172630
21
173.725349
0
LINE
8
Layer 1
10
-317.172630
20
173.725349
11
-314.064800
21
171.679479
0
LINE
8
Layer 1
10
-314.064800
20
171.679479
11
-312.510380
21
170.701239
0
LINE
8
Layer 1
10
-312.510380
20
170.701239
11
-310.785637
21
169.525257
0
LINE
8
Layer 1
10
-310.785637
20
169.525257
11
-307.336442
21
166.660045
0
LINE
8
Layer 1
10
-307.336442
20
166.660045
11
-303.318092
21
163.099705
0
LINE
8
Layer 1
10
-303.318092
20
163.099705
11
-299.885880
21
159.838339
0
LINE
8
Layer 1
10
-299.885880
20
159.838339
11
-296.453077
21
156.197806
0
LINE
8
Layer 1
10
-296.453077
20
156.197806
11
-293.229480
21
152.421353
0
LINE
8
Layer 1
10
-293.229480
20
152.421353
11
-290.217549
21
148.515125
0
LINE
8
Layer 1
10
-290.217549
20
148.515125
11
-287.419739
21
144.485266
0
LINE
8
Layer 1
10
-287.419739
20
144.485266
11
-284.838510
21
140.337919
0
LINE
8
Layer 1
10
-284.838510
20
140.337919
11
-282.476319
21
136.079230
0
LINE
8
Layer 1
10
-282.476319
20
136.079230
11
-280.335623
21
131.715343
0
LINE
8
Layer 1
10
-280.335623
20
131.715343
11
-278.418880
21
127.252402
0
LINE
8
Layer 1
10
-278.418880
20
127.252402
11
-276.728548
21
122.696550
0
LINE
8
Layer 1
10
-276.728548
20
122.696550
11
-275.267085
21
118.053934
0
LINE
8
Layer 1
10
-275.267085
20
118.053934
11
-274.036948
21
113.330696
0
LINE
8
Layer 1
10
-274.036948
20
113.330696
11
-273.040596
21
108.532981
0
LINE
8
Layer 1
10
-273.040596
20
108.532981
11
-272.280485
21
103.666934
0
LINE
8
Layer 1
10
-272.280485
20
103.666934
11
-271.759073
21
98.738698
0
LINE
8
Layer 1
10
-271.759073
20
98.738698
11
-271.478819
21
93.754418
0
LINE
8
Layer 1
10
-271.478819
20
93.754418
11
-271.442180
21
88.720239
0
LINE
8
Layer 1
10
-271.442180
20
88.720239
11
-271.646485
21
83.088930
0
LINE
8
Layer 1
10
-271.646485
20
83.088930
11
-271.975470
21
79.084139
0
LINE
8
Layer 1
10
-271.975470
20
79.084139
11
-272.548560
21
75.170679
0
LINE
8
Layer 1
10
-272.548560
20
75.170679
11
-273.760053
21
69.000573
0
LINE
8
Layer 1
10
-273.760053
20
69.000573
11
-275.337530
21
62.539879
0
LINE
8
Layer 1
10
-275.337530
20
62.539879
11
-278.080273
21
54.679719
0
LINE
8
Layer 1
10
-278.080273
20
54.679719
11
-279.611731
21
50.789906
0
LINE
8
Layer 1
10
-279.611731
20
50.789906
11
-280.531010
21
48.825479
0
LINE
8
Layer 1
10
-280.531010
20
48.825479
11
-282.476120
21
45.135779
0
LINE
8
Layer 1
10
-282.476120
20
45.135779
11
-284.764340
21
40.882289
0
LINE
8
Layer 1
10
-284.764340
20
40.882289
11
-286.953370
21
37.545539
0
LINE
8
Layer 1
10
-286.953370
20
37.545539
11
-288.684540
21
35.151889
0
LINE
8
Layer 1
10
-288.684540
20
35.151889
11
-288.684400
21
35.151900
0
LINE
8
Layer 1
10
-454.516400
20
37.539350
11
-454.782174
21
37.611882
0
LINE
8
Layer 1
10
-454.782174
20
37.611882
11
-454.959260
21
37.835456
0
LINE
8
Layer 1
10
-454.959260
20
37.835456
11
-456.159700
21
39.328386
0
LINE
8
Layer 1
10
-456.159700
20
39.328386
11
-456.988590
21
40.415136
0
LINE
8
Layer 1
10
-456.988590
20
40.415136
11
-455.178429
21
41.760814
0
LINE
8
Layer 1
10
-455.178429
20
41.760814
11
-451.138602
21
44.305410
0
LINE
8
Layer 1
10
-451.138602
20
44.305410
11
-446.955095
21
46.776589
0
LINE
8
Layer 1
10
-446.955095
20
46.776589
11
-444.713890
21
47.902016
0
LINE
8
Layer 1
10
-444.713890
20
47.902016
11
-444.240724
21
47.444687
0
LINE
8
Layer 1
10
-444.240724
20
47.444687
11
-443.602850
21
46.320716
0
LINE
8
Layer 1
10
-443.602850
20
46.320716
11
-442.847860
21
44.721846
0
LINE
8
Layer 1
10
-442.847860
20
44.721846
11
-444.314450
21
43.724491
0
LINE
8
Layer 1
10
-444.314450
20
43.724491
11
-450.184360
21
39.949011
0
LINE
8
Layer 1
10
-450.184360
20
39.949011
11
-453.209562
21
38.093322
0
LINE
8
Layer 1
10
-453.209562
20
38.093322
11
-454.516410
21
37.539341
0
LINE
8
Layer 1
10
-454.516410
20
37.539341
11
-454.516400
21
37.539350
0
LINE
8
Layer 1
10
-450.203480
20
85.788050
11
-450.405020
21
87.417410
0
LINE
8
Layer 1
10
-450.405020
20
87.417410
11
-450.745560
21
90.170730
0
LINE
8
Layer 1
10
-450.745560
20
90.170730
11
-450.743111
21
91.228911
0
LINE
8
Layer 1
10
-450.743111
20
91.228911
11
-450.607321
21
91.535721
0
LINE
8
Layer 1
10
-450.607321
20
91.535721
11
-450.376072
21
91.696142
0
LINE
8
Layer 1
10
-450.376072
20
91.696142
11
-449.609962
21
91.583215
0
LINE
8
Layer 1
10
-449.609962
20
91.583215
11
-448.410300
21
90.900919
0
LINE
8
Layer 1
10
-448.410300
20
90.900919
11
-448.410300
21
90.901435
0
LINE
8
Layer 1
10
-448.410300
20
90.901435
11
-441.867550
21
87.043785
0
LINE
8
Layer 1
10
-441.867550
20
87.043785
11
-440.088330
21
86.035065
0
LINE
8
Layer 1
10
-440.088330
20
86.035065
11
-442.579140
21
85.980285
0
LINE
8
Layer 1
10
-442.579140
20
85.980285
11
-447.636710
21
85.856778
0
LINE
8
Layer 1
10
-447.636710
20
85.856778
11
-450.203480
21
85.788050
0
LINE
8
Layer 1
10
-289.740480
20
88.580130
11
-291.485180
21
89.017387
0
LINE
8
Layer 1
10
-291.485180
20
89.017387
11
-292.405467
21
89.389210
0
LINE
8
Layer 1
10
-292.405467
20
89.389210
11
-292.939240
21
89.726830
0
LINE
8
Layer 1
10
-292.939240
20
89.726830
11
-293.199801
21
90.888510
0
LINE
8
Layer 1
10
-293.199801
20
90.888510
11
-293.378500
21
93.137990
0
LINE
8
Layer 1
10
-293.378500
20
93.137990
11
-293.498920
21
96.162090
0
LINE
8
Layer 1
10
-293.498920
20
96.162090
11
-291.900540
21
96.929486
0
LINE
8
Layer 1
10
-291.900540
20
96.929486
11
-290.704846
21
97.430384
0
LINE
8
Layer 1
10
-290.704846
20
97.430384
11
-290.074840
21
97.556838
0
LINE
8
Layer 1
10
-290.074840
20
97.556838
11
-289.570990
21
96.255628
0
LINE
8
Layer 1
10
-289.570990
20
96.255628
11
-289.406760
21
94.597726
0
LINE
8
Layer 1
10
-289.406760
20
94.597726
11
-289.344121
21
92.094318
0
LINE
8
Layer 1
10
-289.344121
20
92.094318
11
-289.387166
21
89.762637
0
LINE
8
Layer 1
10
-289.387166
20
89.762637
11
-289.539990
21
88.619918
0
LINE
8
Layer 1
10
-289.539990
20
88.619918
11
-289.740490
21
88.580128
0
LINE
8
Layer 1
10
-289.740490
20
88.580128
11
-289.740480
21
88.580130
0
LINE
8
Layer 1
10
-296.111680
20
90.753640
11
-296.436720
21
90.837350
0
LINE
8
Layer 1
10
-296.436720
20
90.837350
11
-298.818470
21
91.584591
0
LINE
8
Layer 1
10
-298.818470
20
91.584591
11
-300.323673
21
92.070237
0
LINE
8
Layer 1
10
-300.323673
20
92.070237
11
-300.715277
21
92.291505
0
LINE
8
Layer 1
10
-300.715277
20
92.291505
11
-300.869354
21
92.518819
0
LINE
8
Layer 1
10
-300.869354
20
92.518819
11
-300.788258
21
92.767492
0
LINE
8
Layer 1
10
-300.788258
20
92.767492
11
-300.474345
21
93.052837
0
LINE
8
Layer 1
10
-300.474345
20
93.052837
11
-299.157480
21
93.794791
0
LINE
8
Layer 1
10
-299.157480
20
93.794791
11
-297.663573
21
94.510514
0
LINE
8
Layer 1
10
-297.663573
20
94.510514
11
-296.771949
21
94.819565
0
LINE
8
Layer 1
10
-296.771949
20
94.819565
11
-296.291353
21
94.756144
0
LINE
8
Layer 1
10
-296.291353
20
94.756144
11
-296.030530
21
94.354446
0
LINE
8
Layer 1
10
-296.030530
20
94.354446
11
-295.814520
21
92.181456
0
LINE
8
Layer 1
10
-295.814520
20
92.181456
11
-295.868915
21
91.081255
0
LINE
8
Layer 1
10
-295.868915
20
91.081255
11
-296.111680
21
90.753636
0
LINE
8
Layer 1
10
-296.111680
20
90.753636
11
-296.111680
21
90.753640
0
LINE
8
Layer 1
10
-450.342680
20
95.272740
11
-450.459410
21
95.784735
0
LINE
8
Layer 1
10
-450.459410
20
95.784735
11
-450.381364
21
97.018010
0
LINE
8
Layer 1
10
-450.381364
20
97.018010
11
-449.840920
21
99.832150
0
LINE
8
Layer 1
10
-449.840920
20
99.832150
11
-449.481632
21
100.737708
0
LINE
8
Layer 1
10
-449.481632
20
100.737708
11
-449.091610
21
101.299801
0
LINE
8
Layer 1
10
-449.091610
20
101.299801
11
-448.639442
21
101.548584
0
LINE
8
Layer 1
10
-448.639442
20
101.548584
11
-448.093720
21
101.514210
0
LINE
8
Layer 1
10
-448.093720
20
101.514210
11
-443.534840
21
100.940090
0
LINE
8
Layer 1
10
-443.534840
20
100.940090
11
-440.776827
21
100.567775
0
LINE
8
Layer 1
10
-440.776827
20
100.567775
11
-440.003929
21
100.399702
0
LINE
8
Layer 1
10
-440.003929
20
100.399702
11
-439.798640
21
100.272950
0
LINE
8
Layer 1
10
-439.798640
20
100.272950
11
-445.104750
21
97.662422
0
LINE
8
Layer 1
10
-445.104750
20
97.662422
11
-450.342640
21
95.272740
0
LINE
8
Layer 1
10
-450.342640
20
95.272740
11
-450.342680
21
95.272740
0
LINE
8
Layer 1
10
-435.160180
20
104.674240
11
-437.548841
21
104.827096
0
LINE
8
Layer 1
10
-437.548841
20
104.827096
11
-441.689510
21
105.299010
0
LINE
8
Layer 1
10
-441.689510
20
105.299010
11
-445.987720
21
105.839235
0
LINE
8
Layer 1
10
-445.987720
20
105.839235
11
-448.173514
21
106.303046
0
LINE
8
Layer 1
10
-448.173514
20
106.303046
11
-448.675973
21
106.582301
0
LINE
8
Layer 1
10
-448.675973
20
106.582301
11
-448.892389
21
106.933659
0
LINE
8
Layer 1
10
-448.892389
20
106.933659
11
-448.789840
21
107.974290
0
LINE
8
Layer 1
10
-448.789840
20
107.974290
11
-448.027174
21
110.401184
0
LINE
8
Layer 1
10
-448.027174
20
110.401184
11
-447.227660
21
112.032440
0
LINE
8
Layer 1
10
-447.227660
20
112.032440
11
-446.085689
21
111.932352
0
LINE
8
Layer 1
10
-446.085689
20
111.932352
11
-443.560737
21
111.308964
0
LINE
8
Layer 1
10
-443.560737
20
111.308964
11
-437.063960
21
109.235720
0
LINE
8
Layer 1
10
-437.063960
20
109.235720
11
-433.409400
21
107.743300
0
LINE
8
Layer 1
10
-433.409400
20
107.743300
11
-433.300724
21
107.158602
0
LINE
8
Layer 1
10
-433.300724
20
107.158602
11
-433.424900
21
106.098960
0
LINE
8
Layer 1
10
-433.424900
20
106.098960
11
-433.578399
21
105.466946
0
LINE
8
Layer 1
10
-433.578399
20
105.466946
11
-433.826717
21
105.027747
0
LINE
8
Layer 1
10
-433.826717
20
105.027747
11
-434.307952
21
104.767975
0
LINE
8
Layer 1
10
-434.307952
20
104.767975
11
-435.160200
21
104.674240
0
LINE
8
Layer 1
10
-435.160200
20
104.674240
11
-435.160180
21
104.674240
0
LINE
8
Layer 1
10
-291.670180
20
110.374150
11
-298.087999
21
112.766005
0
LINE
8
Layer 1
10
-298.087999
20
112.766005
11
-305.573180
21
115.902490
0
LINE
8
Layer 1
10
-305.573180
20
115.902490
11
-306.477332
21
116.357112
0
LINE
8
Layer 1
10
-306.477332
20
116.357112
11
-306.599882
21
116.537322
0
LINE
8
Layer 1
10
-306.599882
20
116.537322
11
-306.416470
21
116.741604
0
LINE
8
Layer 1
10
-306.416470
20
116.741604
11
-304.872918
21
117.388796
0
LINE
8
Layer 1
10
-304.872918
20
117.388796
11
-301.329000
21
118.631520
0
LINE
8
Layer 1
10
-301.329000
20
118.631520
11
-298.304920
21
119.632269
0
LINE
8
Layer 1
10
-298.304920
20
119.632269
11
-296.410630
21
120.081672
0
LINE
8
Layer 1
10
-296.410630
20
120.081672
11
-295.374715
21
120.015290
0
LINE
8
Layer 1
10
-295.374715
20
120.015290
11
-295.093831
21
119.799791
0
LINE
8
Layer 1
10
-295.093831
20
119.799791
11
-294.925760
21
119.468680
0
LINE
8
Layer 1
10
-294.925760
20
119.468680
11
-294.147520
21
118.206230
0
LINE
8
Layer 1
10
-294.147520
20
118.206230
11
-293.478365
21
116.788193
0
LINE
8
Layer 1
10
-293.478365
20
116.788193
11
-292.569721
21
114.189284
0
LINE
8
Layer 1
10
-292.569721
20
114.189284
11
-291.818752
21
111.641215
0
LINE
8
Layer 1
10
-291.818752
20
111.641215
11
-291.622620
21
110.375700
0
LINE
8
Layer 1
10
-291.622620
20
110.375700
11
-291.670220
21
110.373700
0
LINE
8
Layer 1
10
-291.670220
20
110.373700
11
-291.670180
21
110.374150
0
LINE
8
Layer 1
10
-431.301180
20
112.541970
11
-432.528811
21
112.693937
0
LINE
8
Layer 1
10
-432.528811
20
112.693937
11
-434.129110
21
113.078888
0
LINE
8
Layer 1
10
-434.129110
20
113.078888
11
-435.548449
21
113.553497
0
LINE
8
Layer 1
10
-435.548449
20
113.553497
11
-436.233200
21
113.974440
0
LINE
8
Layer 1
10
-436.233200
20
113.974440
11
-436.239595
21
114.698694
0
LINE
8
Layer 1
10
-436.239595
20
114.698694
11
-436.019760
21
115.826530
0
LINE
8
Layer 1
10
-436.019760
20
115.826530
11
-435.773095
21
116.598936
0
LINE
8
Layer 1
10
-435.773095
20
116.598936
11
-435.470561
21
117.054922
0
LINE
8
Layer 1
10
-435.470561
20
117.054922
11
-434.985937
21
117.308315
0
LINE
8
Layer 1
10
-434.985937
20
117.308315
11
-434.193000
21
117.472940
0
LINE
8
Layer 1
10
-434.193000
20
117.472940
11
-433.027134
21
117.804054
0
LINE
8
Layer 1
10
-433.027134
20
117.804054
11
-432.854105
21
118.076771
0
LINE
8
Layer 1
10
-432.854105
20
118.076771
11
-432.860260
21
118.493030
0
LINE
8
Layer 1
10
-432.860260
20
118.493030
11
-433.207347
21
119.178216
0
LINE
8
Layer 1
10
-433.207347
20
119.178216
11
-433.883460
21
119.717250
0
LINE
8
Layer 1
10
-433.883460
20
119.717250
11
-436.932897
21
120.701719
0
LINE
8
Layer 1
10
-436.932897
20
120.701719
11
-438.444978
21
121.016545
0
LINE
8
Layer 1
10
-438.444978
20
121.016545
11
-439.245400
21
121.039650
0
LINE
8
Layer 1
10
-439.245400
20
121.039650
11
-439.549365
21
120.578427
0
LINE
8
Layer 1
10
-439.549365
20
120.578427
11
-439.547087
21
119.925104
0
LINE
8
Layer 1
10
-439.547087
20
119.925104
11
-439.284159
21
119.299499
0
LINE
8
Layer 1
10
-439.284159
20
119.299499
11
-438.806170
21
118.921430
0
LINE
8
Layer 1
10
-438.806170
20
118.921430
11
-438.250842
21
118.538465
0
LINE
8
Layer 1
10
-438.250842
20
118.538465
11
-438.247020
21
117.741140
0
LINE
8
Layer 1
10
-438.247020
20
117.741140
11
-438.914564
21
115.615919
0
LINE
8
Layer 1
10
-438.914564
20
115.615919
11
-439.292970
21
115.055544
0
LINE
8
Layer 1
10
-439.292970
20
115.055544
11
-439.649000
21
114.934590
0
LINE
8
Layer 1
10
-439.649000
20
114.934590
11
-442.526340
21
115.920580
0
LINE
8
Layer 1
10
-442.526340
20
115.920580
11
-444.963920
21
116.740680
0
LINE
8
Layer 1
10
-444.963920
20
116.740680
11
-444.739130
21
118.146280
0
LINE
8
Layer 1
10
-444.739130
20
118.146280
11
-444.398910
21
119.651610
0
LINE
8
Layer 1
10
-444.398910
20
119.651610
11
-443.905776
21
120.654369
0
LINE
8
Layer 1
10
-443.905776
20
120.654369
11
-443.194605
21
121.240501
0
LINE
8
Layer 1
10
-443.194605
20
121.240501
11
-442.200270
21
121.495950
0
LINE
8
Layer 1
10
-442.200270
20
121.495950
11
-440.687196
21
121.852558
0
LINE
8
Layer 1
10
-440.687196
20
121.852558
11
-440.268698
21
122.122179
0
LINE
8
Layer 1
10
-440.268698
20
122.122179
11
-440.080634
21
122.429894
0
LINE
8
Layer 1
10
-440.080634
20
122.429894
11
-440.126809
21
122.758616
0
LINE
8
Layer 1
10
-440.126809
20
122.758616
11
-440.411029
21
123.091258
0
LINE
8
Layer 1
10
-440.411029
20
123.091258
11
-441.708830
21
123.699950
0
LINE
8
Layer 1
10
-441.708830
20
123.699950
11
-442.700802
21
124.101476
0
LINE
8
Layer 1
10
-442.700802
20
124.101476
11
-443.113400
21
124.476130
0
LINE
8
Layer 1
10
-443.113400
20
124.476130
11
-442.958122
21
125.155048
0
LINE
8
Layer 1
10
-442.958122
20
125.155048
11
-442.540116
21
126.067393
0
LINE
8
Layer 1
10
-442.540116
20
126.067393
11
-441.202882
21
128.192972
0
LINE
8
Layer 1
10
-441.202882
20
128.192972
11
-439.675625
21
130.054091
0
LINE
8
Layer 1
10
-439.675625
20
130.054091
11
-439.020089
21
130.635859
0
LINE
8
Layer 1
10
-439.020089
20
130.635859
11
-438.532270
21
130.851970
0
LINE
8
Layer 1
10
-438.532270
20
130.851970
11
-437.473575
21
130.476497
0
LINE
8
Layer 1
10
-437.473575
20
130.476497
11
-435.798590
21
129.573490
0
LINE
8
Layer 1
10
-435.798590
20
129.573490
11
-432.083580
21
127.418070
0
LINE
8
Layer 1
10
-432.083580
20
127.418070
11
-428.341633
21
125.262462
0
LINE
8
Layer 1
10
-428.341633
20
125.262462
11
-426.661690
21
123.976420
0
LINE
8
Layer 1
10
-426.661690
20
123.976420
11
-426.337205
21
123.547589
0
LINE
8
Layer 1
10
-426.337205
20
123.547589
11
-426.271151
21
123.122100
0
LINE
8
Layer 1
10
-426.271151
20
123.122100
11
-427.036340
21
121.462880
0
LINE
8
Layer 1
10
-427.036340
20
121.462880
11
-427.836799
21
120.193774
0
LINE
8
Layer 1
10
-427.836799
20
120.193774
11
-428.366470
21
119.695540
0
LINE
8
Layer 1
10
-428.366470
20
119.695540
11
-430.183420
21
119.988030
0
LINE
8
Layer 1
10
-430.183420
20
119.988030
11
-431.466217
21
120.058614
0
LINE
8
Layer 1
10
-431.466217
20
120.058614
11
-431.740367
21
119.843815
0
LINE
8
Layer 1
10
-431.740367
20
119.843815
11
-431.923370
21
119.411320
0
LINE
8
Layer 1
10
-431.923370
20
119.411320
11
-432.000479
21
118.959278
0
LINE
8
Layer 1
10
-432.000479
20
118.959278
11
-431.886485
21
118.552484
0
LINE
8
Layer 1
10
-431.886485
20
118.552484
11
-430.918280
21
117.568540
0
LINE
8
Layer 1
10
-430.918280
20
117.568540
11
-429.653750
21
116.545350
0
LINE
8
Layer 1
10
-429.653750
20
116.545350
11
-430.189640
21
114.714970
0
LINE
8
Layer 1
10
-430.189640
20
114.714970
11
-430.980270
21
112.614840
0
LINE
8
Layer 1
10
-430.980270
20
112.614840
11
-431.301180
21
112.541940
0
LINE
8
Layer 1
10
-431.301180
20
112.541940
11
-431.301180
21
112.541970
0
LINE
8
Layer 1
10
-310.375180
20
118.399500
11
-310.890152
21
118.617228
0
LINE
8
Layer 1
10
-310.890152
20
118.617228
11
-311.485125
21
119.140261
0
LINE
8
Layer 1
10
-311.485125
20
119.140261
11
-311.976643
21
119.773374
0
LINE
8
Layer 1
10
-311.976643
20
119.773374
11
-312.181250
21
120.321340
0
LINE
8
Layer 1
10
-312.181250
20
120.321340
11
-311.130655
21
121.321564
0
LINE
8
Layer 1
10
-311.130655
20
121.321564
11
-308.506331
21
123.176759
0
LINE
8
Layer 1
10
-308.506331
20
123.176759
11
-305.099466
21
125.357497
0
LINE
8
Layer 1
10
-305.099466
20
125.357497
11
-301.701250
21
127.334350
0
LINE
8
Layer 1
10
-301.701250
20
127.334350
11
-299.984848
21
128.175742
0
LINE
8
Layer 1
10
-299.984848
20
128.175742
11
-299.384646
21
128.335401
0
LINE
8
Layer 1
10
-299.384646
20
128.335401
11
-298.899679
21
128.304213
0
LINE
8
Layer 1
10
-298.899679
20
128.304213
11
-298.487373
21
128.069562
0
LINE
8
Layer 1
10
-298.487373
20
128.069562
11
-298.105155
21
127.618832
0
LINE
8
Layer 1
10
-298.105155
20
127.618832
11
-297.260690
21
126.018670
0
LINE
8
Layer 1
10
-297.260690
20
126.018670
11
-296.649802
21
124.526093
0
LINE
8
Layer 1
10
-296.649802
20
124.526093
11
-296.551196
21
123.996878
0
LINE
8
Layer 1
10
-296.551196
20
123.996878
11
-296.604356
21
123.572367
0
LINE
8
Layer 1
10
-296.604356
20
123.572367
11
-296.819690
21
123.222554
0
LINE
8
Layer 1
10
-296.819690
20
123.222554
11
-297.207603
21
122.917430
0
LINE
8
Layer 1
10
-297.207603
20
122.917430
11
-298.542790
21
122.321220
0
LINE
8
Layer 1
10
-298.542790
20
122.321220
11
-305.518262
21
119.905436
0
LINE
8
Layer 1
10
-305.518262
20
119.905436
11
-310.375090
21
118.399500
0
LINE
8
Layer 1
10
-310.375090
20
118.399500
11
-310.375180
21
118.399500
0
LINE
8
Layer 1
10
-313.627670
20
125.275050
11
-314.216270
21
125.618690
0
LINE
8
Layer 1
10
-314.216270
20
125.618690
11
-314.536292
21
126.198787
0
LINE
8
Layer 1
10
-314.536292
20
126.198787
11
-314.518080
21
126.862030
0
LINE
8
Layer 1
10
-314.518080
20
126.862030
11
-312.841720
21
128.830640
0
LINE
8
Layer 1
10
-312.841720
20
128.830640
11
-309.363762
21
132.365366
0
LINE
8
Layer 1
10
-309.363762
20
132.365366
11
-305.827714
21
135.746975
0
LINE
8
Layer 1
10
-305.827714
20
135.746975
11
-303.977080
21
137.256230
0
LINE
8
Layer 1
10
-303.977080
20
137.256230
11
-303.457450
21
136.678519
0
LINE
8
Layer 1
10
-303.457450
20
136.678519
11
-302.733250
21
135.289420
0
LINE
8
Layer 1
10
-302.733250
20
135.289420
11
-301.863010
21
132.967080
0
LINE
8
Layer 1
10
-301.863010
20
132.967080
11
-303.277447
21
131.832355
0
LINE
8
Layer 1
10
-303.277447
20
131.832355
11
-306.550032
21
129.558786
0
LINE
8
Layer 1
10
-306.550032
20
129.558786
11
-312.845310
21
125.536010
0
LINE
8
Layer 1
10
-312.845310
20
125.536010
11
-313.627680
21
125.275050
0
LINE
8
Layer 1
10
-313.627680
20
125.275050
11
-313.627670
21
125.275050
0
LINE
8
Layer 1
10
-423.523670
20
128.008730
11
-424.589570
21
128.424855
0
LINE
8
Layer 1
10
-424.589570
20
128.424855
11
-426.432020
21
129.428800
0
LINE
8
Layer 1
10
-426.432020
20
129.428800
11
-429.182760
21
130.851970
0
LINE
8
Layer 1
10
-429.182760
20
130.851970
11
-429.729160
21
131.093699
0
LINE
8
Layer 1
10
-429.729160
20
131.093699
11
-430.543910
21
131.674660
0
LINE
8
Layer 1
10
-430.543910
20
131.674660
11
-433.150980
21
133.443020
0
LINE
8
Layer 1
10
-433.150980
20
133.443020
11
-435.591660
21
135.053260
0
LINE
8
Layer 1
10
-435.591660
20
135.053260
11
-436.060777
21
135.454619
0
LINE
8
Layer 1
10
-436.060777
20
135.454619
11
-436.240762
21
135.789324
0
LINE
8
Layer 1
10
-436.240762
20
135.789324
11
-436.151494
21
136.225607
0
LINE
8
Layer 1
10
-436.151494
20
136.225607
11
-435.812850
21
136.931700
0
LINE
8
Layer 1
10
-435.812850
20
136.931700
11
-434.520421
21
138.900732
0
LINE
8
Layer 1
10
-434.520421
20
138.900732
11
-432.498627
21
141.476179
0
LINE
8
Layer 1
10
-432.498627
20
141.476179
11
-430.366866
21
143.910909
0
LINE
8
Layer 1
10
-430.366866
20
143.910909
11
-428.744530
21
145.457790
0
LINE
8
Layer 1
10
-428.744530
20
145.457790
11
-427.351340
21
146.482540
0
LINE
8
Layer 1
10
-427.351340
20
146.482540
11
-426.070280
21
145.466060
0
LINE
8
Layer 1
10
-426.070280
20
145.466060
11
-420.609120
21
140.455000
0
LINE
8
Layer 1
10
-420.609120
20
140.455000
11
-417.656564
21
137.539685
0
LINE
8
Layer 1
10
-417.656564
20
137.539685
11
-416.428490
21
136.141050
0
LINE
8
Layer 1
10
-416.428490
20
136.141050
11
-416.768250
21
135.546963
0
LINE
8
Layer 1
10
-416.768250
20
135.546963
11
-417.585010
21
134.565440
0
LINE
8
Layer 1
10
-417.585010
20
134.565440
11
-418.741000
21
133.307630
0
LINE
8
Layer 1
10
-418.741000
20
133.307630
11
-419.984860
21
134.227990
0
LINE
8
Layer 1
10
-419.984860
20
134.227990
11
-421.076605
21
134.878139
0
LINE
8
Layer 1
10
-421.076605
20
134.878139
11
-421.917131
21
135.014359
0
LINE
8
Layer 1
10
-421.917131
20
135.014359
11
-422.526622
21
134.633242
0
LINE
8
Layer 1
10
-422.526622
20
134.633242
11
-422.925260
21
133.731380
0
LINE
8
Layer 1
10
-422.925260
20
133.731380
11
-423.058815
21
133.066533
0
LINE
8
Layer 1
10
-423.058815
20
133.066533
11
-423.026265
21
132.581346
0
LINE
8
Layer 1
10
-423.026265
20
132.581346
11
-422.792445
21
132.155704
0
LINE
8
Layer 1
10
-422.792445
20
132.155704
11
-422.322190
21
131.669490
0
LINE
8
Layer 1
10
-422.322190
20
131.669490
11
-421.406500
21
130.820440
0
LINE
8
Layer 1
10
-421.406500
20
130.820440
11
-422.208500
21
129.415880
0
LINE
8
Layer 1
10
-422.208500
20
129.415880
11
-422.925691
21
128.423165
0
LINE
8
Layer 1
10
-422.925691
20
128.423165
11
-423.523670
21
128.008730
0
LINE
8
Layer 1
10
-423.523670
20
128.008730
11
-423.523670
21
128.008730
0
LINE
8
Layer 1
10
-311.492670
20
136.544640
11
-311.841766
21
136.701150
0
LINE
8
Layer 1
10
-311.841766
20
136.701150
11
-312.570916
21
137.344966
0
LINE
8
Layer 1
10
-312.570916
20
137.344966
11
-316.252600
21
141.140230
0
LINE
8
Layer 1
10
-316.252600
20
141.140230
11
-318.722720
21
143.733350
0
LINE
8
Layer 1
10
-318.722720
20
143.733350
11
-316.441200
21
145.831930
0
LINE
8
Layer 1
10
-316.441200
20
145.831930
11
-313.971070
21
147.926890
0
LINE
8
Layer 1
10
-313.971070
20
147.926890
11
-312.181510
21
146.652040
0
LINE
8
Layer 1
10
-312.181510
20
146.652040
11
-310.477584
21
145.145402
0
LINE
8
Layer 1
10
-310.477584
20
145.145402
11
-308.996571
21
143.564124
0
LINE
8
Layer 1
10
-308.996571
20
143.564124
11
-307.951641
21
142.160091
0
LINE
8
Layer 1
10
-307.951641
20
142.160091
11
-307.555960
21
141.185190
0
LINE
8
Layer 1
10
-307.555960
20
141.185190
11
-308.107662
21
140.235890
0
LINE
8
Layer 1
10
-308.107662
20
140.235890
11
-309.355224
21
138.665614
0
LINE
8
Layer 1
10
-309.355224
20
138.665614
11
-310.687331
21
137.194988
0
LINE
8
Layer 1
10
-310.687331
20
137.194988
11
-311.492670
21
136.544640
0
LINE
8
Layer 1
10
-311.492670
20
136.544640
11
-311.492670
21
136.544640
0
LINE
8
Layer 1
10
-329.411970
20
142.321030
11
-331.997340
21
143.674440
0
LINE
8
Layer 1
10
-331.997340
20
143.674440
11
-334.576278
21
145.287322
0
LINE
8
Layer 1
10
-334.576278
20
145.287322
11
-335.484860
21
146.111254
0
LINE
8
Layer 1
10
-335.484860
20
146.111254
11
-336.156154
21
146.973372
0
LINE
8
Layer 1
10
-336.156154
20
146.973372
11
-336.602636
21
147.893574
0
LINE
8
Layer 1
10
-336.602636
20
147.893574
11
-336.836785
21
148.891754
0
LINE
8
Layer 1
10
-336.836785
20
148.891754
11
-336.871077
21
149.987808
0
LINE
8
Layer 1
10
-336.871077
20
149.987808
11
-336.717990
21
151.201630
0
LINE
8
Layer 1
10
-336.717990
20
151.201630
11
-336.469987
21
152.395339
0
LINE
8
Layer 1
10
-336.469987
20
152.395339
11
-336.179712
21
153.223969
0
LINE
8
Layer 1
10
-336.179712
20
153.223969
11
-334.797160
21
155.185880
0
LINE
8
Layer 1
10
-334.797160
20
155.185880
11
-333.627145
21
156.311169
0
LINE
8
Layer 1
10
-333.627145
20
156.311169
11
-332.106955
21
157.289560
0
LINE
8
Layer 1
10
-332.106955
20
157.289560
11
-330.503012
21
157.978856
0
LINE
8
Layer 1
10
-330.503012
20
157.978856
11
-329.081740
21
158.236860
0
LINE
8
Layer 1
10
-329.081740
20
158.236860
11
-327.867099
21
158.024646
0
LINE
8
Layer 1
10
-327.867099
20
158.024646
11
-326.445720
21
157.521140
0
LINE
8
Layer 1
10
-326.445720
20
157.521140
11
-325.112098
21
156.792107
0
LINE
8
Layer 1
10
-325.112098
20
156.792107
11
-324.002199
21
155.905317
0
LINE
8
Layer 1
10
-324.002199
20
155.905317
11
-323.082992
21
154.828827
0
LINE
8
Layer 1
10
-323.082992
20
154.828827
11
-322.321450
21
153.530690
0
LINE
8
Layer 1
10
-322.321450
20
153.530690
11
-321.708600
21
152.466753
0
LINE
8
Layer 1
10
-321.708600
20
152.466753
11
-321.184959
21
151.995870
0
LINE
8
Layer 1
10
-321.184959
20
151.995870
11
-320.723648
21
152.108299
0
LINE
8
Layer 1
10
-320.723648
20
152.108299
11
-320.297790
21
152.794300
0
LINE
8
Layer 1
10
-320.297790
20
152.794300
11
-319.755180
21
153.952880
0
LINE
8
Layer 1
10
-319.755180
20
153.952880
11
-319.327674
21
153.763665
0
LINE
8
Layer 1
10
-319.327674
20
153.763665
11
-318.567351
21
153.063936
0
LINE
8
Layer 1
10
-318.567351
20
153.063936
11
-317.841680
21
152.232360
0
LINE
8
Layer 1
10
-317.841680
20
152.232360
11
-317.518130
21
151.647600
0
LINE
8
Layer 1
10
-317.518130
20
151.647600
11
-318.720097
21
150.128167
0
LINE
8
Layer 1
10
-318.720097
20
150.128167
11
-321.609850
21
147.063900
0
LINE
8
Layer 1
10
-321.609850
20
147.063900
11
-324.499622
21
144.275527
0
LINE
8
Layer 1
10
-324.499622
20
144.275527
11
-325.378712
21
143.546219
0
LINE
8
Layer 1
10
-325.378712
20
143.546219
11
-325.701580
21
143.419680
0
LINE
8
Layer 1
10
-325.701580
20
143.419680
11
-325.897412
21
143.981660
0
LINE
8
Layer 1
10
-325.897412
20
143.981660
11
-326.426071
21
144.155814
0
LINE
8
Layer 1
10
-326.426071
20
144.155814
11
-327.199300
21
143.944601
0
LINE
8
Layer 1
10
-327.199300
20
143.944601
11
-328.128840
21
143.350480
0
LINE
8
Layer 1
10
-328.128840
20
143.350480
11
-329.411970
21
142.321030
0
LINE
8
Layer 1
10
-405.401070
20
149.731430
11
-405.822238
21
149.969684
0
LINE
8
Layer 1
10
-405.822238
20
149.969684
11
-406.466650
21
150.598560
0
LINE
8
Layer 1
10
-406.466650
20
150.598560
11
-407.177205
21
151.226952
0
LINE
8
Layer 1
10
-407.177205
20
151.226952
11
-407.712050
21
151.488430
0
LINE
8
Layer 1
10
-407.712050
20
151.488430
11
-408.239799
21
151.742359
0
LINE
8
Layer 1
10
-408.239799
20
151.742359
11
-408.933680
21
152.352980
0
LINE
8
Layer 1
10
-408.933680
20
152.352980
11
-409.746030
21
153.217530
0
LINE
8
Layer 1
10
-409.746030
20
153.217530
11
-408.017450
21
154.303250
0
LINE
8
Layer 1
10
-408.017450
20
154.303250
11
-406.788011
21
155.044930
0
LINE
8
Layer 1
10
-406.788011
20
155.044930
11
-406.106495
21
155.327499
0
LINE
8
Layer 1
10
-406.106495
20
155.327499
11
-405.808012
21
155.172485
0
LINE
8
Layer 1
10
-405.808012
20
155.172485
11
-405.727670
21
154.601420
0
LINE
8
Layer 1
10
-405.727670
20
154.601420
11
-405.582970
21
153.187550
0
LINE
8
Layer 1
10
-405.582970
20
153.187550
11
-405.163674
21
150.517839
0
LINE
8
Layer 1
10
-405.163674
20
150.517839
11
-405.193817
21
149.908086
0
LINE
8
Layer 1
10
-405.193817
20
149.908086
11
-405.401070
21
149.731430
0
LINE
8
Layer 1
10
-405.401070
20
149.731430
11
-405.401070
21
149.731430
0
LINE
8
Layer 1
10
-412.029600
20
154.997260
11
-412.495523
21
155.059425
0
LINE
8
Layer 1
10
-412.495523
20
155.059425
11
-412.962388
21
155.291034
0
LINE
8
Layer 1
10
-412.962388
20
155.291034
11
-414.107530
21
156.252480
0
LINE
8
Layer 1
10
-414.107530
20
156.252480
11
-415.011340
21
157.090160
0
LINE
8
Layer 1
10
-415.011340
20
157.090160
11
-413.008870
21
158.647690
0
LINE
8
Layer 1
10
-413.008870
20
158.647690
11
-411.110563
21
159.974215
0
LINE
8
Layer 1
10
-411.110563
20
159.974215
11
-409.358970
21
160.976230
0
LINE
8
Layer 1
10
-409.358970
20
160.976230
11
-407.585374
21
161.726124
0
LINE
8
Layer 1
10
-407.585374
20
161.726124
11
-407.247791
21
161.730204
0
LINE
8
Layer 1
10
-407.247791
20
161.730204
11
-407.062470
21
161.539500
0
LINE
8
Layer 1
10
-407.062470
20
161.539500
11
-406.658370
21
159.784050
0
LINE
8
Layer 1
10
-406.658370
20
159.784050
11
-406.411860
21
158.295250
0
LINE
8
Layer 1
10
-406.411860
20
158.295250
11
-409.132620
21
156.493810
0
LINE
8
Layer 1
10
-409.132620
20
156.493810
11
-410.892060
21
155.391460
0
LINE
8
Layer 1
10
-410.892060
20
155.391460
11
-412.029600
21
154.997260
0
LINE
8
Layer 1
10
-412.029600
20
154.997260
11
-412.029600
21
154.997260
0
LINE
8
Layer 1
10
-395.798000
20
156.825060
11
-390.989520
21
158.248230
0
LINE
8
Layer 1
10
-390.989520
20
158.248230
11
-387.702041
21
159.253342
0
LINE
8
Layer 1
10
-387.702041
20
159.253342
11
-385.746930
21
159.671400
0
LINE
8
Layer 1
10
-385.746930
20
159.671400
11
-384.976983
21
159.823999
0
LINE
8
Layer 1
10
-384.976983
20
159.823999
11
-384.540800
21
160.192290
0
LINE
8
Layer 1
10
-384.540800
20
160.192290
11
-384.613387
21
160.950669
0
LINE
8
Layer 1
10
-384.613387
20
160.950669
11
-385.141839
21
161.831446
0
LINE
8
Layer 1
10
-385.141839
20
161.831446
11
-385.898423
21
162.551006
0
LINE
8
Layer 1
10
-385.898423
20
162.551006
11
-386.655410
21
162.825730
0
LINE
8
Layer 1
10
-386.655410
20
162.825730
11
-388.457770
21
162.349676
0
LINE
8
Layer 1
10
-388.457770
20
162.349676
11
-391.701090
21
161.272850
0
LINE
8
Layer 1
10
-391.701090
20
161.272850
11
-394.823885
21
160.250500
0
LINE
8
Layer 1
10
-394.823885
20
160.250500
11
-396.336460
21
159.905490
0
LINE
8
Layer 1
10
-396.336460
20
159.905490
11
-396.790154
21
159.859853
0
LINE
8
Layer 1
10
-396.790154
20
159.859853
11
-397.366900
21
159.557190
0
LINE
8
Layer 1
10
-397.366900
20
159.557190
11
-397.724937
21
159.260392
0
LINE
8
Layer 1
10
-397.724937
20
159.260392
11
-397.826010
21
158.983999
0
LINE
8
Layer 1
10
-397.826010
20
158.983999
11
-397.201010
21
157.948500
0
LINE
8
Layer 1
10
-397.201010
20
157.948500
11
-396.446296
21
157.155131
0
LINE
8
Layer 1
10
-396.446296
20
157.155131
11
-395.798000
21
156.825060
0
LINE
8
Layer 1
10
-395.798000
20
156.825060
11
-395.798000
21
156.825060
0
LINE
8
Layer 1
10
-350.799200
20
156.938230
11
-350.847800
21
156.947230
0
LINE
8
Layer 1
10
-350.847800
20
156.947230
11
-351.086551
21
157.826278
0
LINE
8
Layer 1
10
-351.086551
20
157.826278
11
-351.344619
21
159.529959
0
LINE
8
Layer 1
10
-351.344619
20
159.529959
11
-351.518737
21
161.242068
0
LINE
8
Layer 1
10
-351.518737
20
161.242068
11
-351.505640
21
162.146400
0
LINE
8
Layer 1
10
-351.505640
20
162.146400
11
-350.785785
21
162.154588
0
LINE
8
Layer 1
10
-350.785785
20
162.154588
11
-349.385488
21
161.849170
0
LINE
8
Layer 1
10
-349.385488
20
161.849170
11
-348.020263
21
161.420159
0
LINE
8
Layer 1
10
-348.020263
20
161.420159
11
-347.405630
21
161.057570
0
LINE
8
Layer 1
10
-347.405630
20
161.057570
11
-348.205570
21
159.910360
0
LINE
8
Layer 1
10
-348.205570
20
159.910360
11
-349.847860
21
157.884120
0
LINE
8
Layer 1
10
-349.847860
20
157.884120
11
-350.799230
21
156.937930
0
LINE
8
Layer 1
10
-350.799230
20
156.937930
11
-350.799200
21
156.938230
0
LINE
8
Layer 1
10
-365.372400
20
160.978810
11
-368.113320
21
165.573360
0
LINE
8
Layer 1
10
-368.113320
20
165.573360
11
-370.274710
21
169.215020
0
LINE
8
Layer 1
10
-370.274710
20
169.215020
11
-370.821318
21
170.273028
0
LINE
8
Layer 1
10
-370.821318
20
170.273028
11
-371.016729
21
170.935991
0
LINE
8
Layer 1
10
-371.016729
20
170.935991
11
-370.864587
21
171.289036
0
LINE
8
Layer 1
10
-370.864587
20
171.289036
11
-370.368539
21
171.417289
0
LINE
8
Layer 1
10
-370.368539
20
171.417289
11
-368.359300
21
171.339930
0
LINE
8
Layer 1
10
-368.359300
20
171.339930
11
-365.372400
21
171.195240
0
LINE
8
Layer 1
10
-365.372400
20
171.195240
11
-365.194650
21
168.724590
0
LINE
8
Layer 1
10
-365.194650
20
168.724590
11
-365.194650
21
163.616380
0
LINE
8
Layer 1
10
-365.194650
20
163.616380
11
-365.372400
21
160.978810
0
LINE
8
Layer 1
10
-379.528100
20
161.387570
11
-379.823383
21
161.725069
0
LINE
8
Layer 1
10
-379.823383
20
161.725069
11
-380.082054
21
162.895817
0
LINE
8
Layer 1
10
-380.082054
20
162.895817
11
-380.690810
21
168.252780
0
LINE
8
Layer 1
10
-380.690810
20
168.252780
11
-380.712401
21
169.486818
0
LINE
8
Layer 1
10
-380.712401
20
169.486818
11
-380.590790
21
169.916084
0
LINE
8
Layer 1
10
-380.590790
20
169.916084
11
-380.351616
21
170.248037
0
LINE
8
Layer 1
10
-380.351616
20
170.248037
11
-379.432699
21
170.703576
0
LINE
8
Layer 1
10
-379.432699
20
170.703576
11
-377.779890
21
171.020570
0
LINE
8
Layer 1
10
-377.779890
20
171.020570
11
-375.482860
21
171.369390
0
LINE
8
Layer 1
10
-375.482860
20
171.369390
11
-375.074640
21
171.211780
0
LINE
8
Layer 1
10
-375.074640
20
171.211780
11
-375.299735
21
170.269652
0
LINE
8
Layer 1
10
-375.299735
20
170.269652
11
-376.122994
21
168.156414
0
LINE
8
Layer 1
10
-376.122994
20
168.156414
11
-378.567960
21
162.811770
0
LINE
8
Layer 1
10
-378.567960
20
162.811770
11
-379.124616
21
161.787257
0
LINE
8
Layer 1
10
-379.124616
20
161.787257
11
-379.528100
21
161.387570
0
LINE
8
Layer 1
10
-379.528100
20
161.387570
11
-379.528100
21
161.387570
0
LINE
8
Layer 1
10
-345.803500
20
163.586400
11
-348.823990
21
164.421490
0
LINE
8
Layer 1
10
-348.823990
20
164.421490
11
-351.844470
21
165.256590
0
LINE
8
Layer 1
10
-351.844470
20
165.256590
11
-352.104930
21
166.783620
0
LINE
8
Layer 1
10
-352.104930
20
166.783620
11
-352.233639
21
167.952139
0
LINE
8
Layer 1
10
-352.233639
20
167.952139
11
-352.176730
21
168.617100
0
LINE
8
Layer 1
10
-352.176730
20
168.617100
11
-351.905884
21
168.757423
0
LINE
8
Layer 1
10
-351.905884
20
168.757423
11
-351.367330
21
168.802784
0
LINE
8
Layer 1
10
-351.367330
20
168.802784
11
-349.715701
21
168.644980
0
LINE
8
Layer 1
10
-349.715701
20
168.644980
11
-347.679055
21
168.216403
0
LINE
8
Layer 1
10
-347.679055
20
168.216403
11
-345.714600
21
167.589770
0
LINE
8
Layer 1
10
-345.714600
20
167.589770
11
-344.144140
21
166.874548
0
LINE
8
Layer 1
10
-344.144140
20
166.874548
11
-343.490960
21
166.388300
0
LINE
8
Layer 1
10
-343.490960
20
166.388300
11
-343.830728
21
165.795942
0
LINE
8
Layer 1
10
-343.830728
20
165.795942
11
-344.647480
21
164.825600
0
LINE
8
Layer 1
10
-344.647480
20
164.825600
11
-345.803500
21
163.586400
 0 
ENDSEC
 0 
EOF